<svg xmlns="http://www.w3.org/2000/svg" xmlns:xlink="http://www.w3.org/1999/xlink"  zoomAndPan="magnify" viewBox="68 4 242 128"  preserveAspectRatio="xMidYMid meet" version="1.0"><defs><g/><clipPath id="894a93c0f6"><rect x="0" width="235" y="0" height="85"/></clipPath></defs>  <g transform="matrix(1, 0, 0, 1, 72, 7)"><g clip-path="url(#894a93c0f6)"><g fill="#127055" fill-opacity="1"><g transform="translate(1.237537, 63.106197)"><g><path d="M 37.734375 -18.3125 C 38.734375 -18.3125 39.519531 -17.96875 40.09375 -17.28125 C 40.664062 -16.59375 40.953125 -15.632812 40.953125 -14.40625 C 40.953125 -14.09375 40.929688 -13.773438 40.890625 -13.453125 C 40.859375 -13.128906 40.804688 -12.847656 40.734375 -12.609375 C 39.921875 -12.804688 39.035156 -12.925781 38.078125 -12.96875 C 37.847656 -11.269531 37.234375 -9.488281 36.234375 -7.625 C 35.234375 -5.769531 34.019531 -4.023438 32.59375 -2.390625 C 31.175781 -0.753906 29.625 0.675781 27.9375 1.90625 C 26.25 3.132812 24.578125 3.957031 22.921875 4.375 C 17.773438 4.257812 14.019531 2.925781 11.65625 0.375 C 9.300781 -2.175781 8.125 -6.160156 8.125 -11.578125 C 8.125 -15.535156 8.851562 -19.363281 10.3125 -23.0625 C 11.769531 -26.769531 13.707031 -30.0625 16.125 -32.9375 C 18.550781 -35.820312 21.328125 -38.140625 24.453125 -39.890625 C 27.585938 -41.640625 30.84375 -42.515625 34.21875 -42.515625 C 36.863281 -42.515625 38.925781 -41.957031 40.40625 -40.84375 C 41.882812 -39.726562 42.625 -38.15625 42.625 -36.125 C 42.625 -34.78125 42.304688 -33.53125 41.671875 -32.375 C 41.046875 -31.21875 40.003906 -29.96875 38.546875 -28.625 C 37.660156 -28.894531 36.890625 -29.363281 36.234375 -30.03125 C 35.578125 -30.707031 35.175781 -31.488281 35.03125 -32.375 C 36.332031 -33.332031 37.25 -34.210938 37.78125 -35.015625 C 38.320312 -35.828125 38.59375 -36.789062 38.59375 -37.90625 C 38.59375 -39.675781 37.539062 -40.5625 35.4375 -40.5625 C 33.707031 -40.5625 31.851562 -39.914062 29.875 -38.625 C 27.894531 -37.34375 25.90625 -35.488281 23.90625 -33.0625 C 21.0625 -29.644531 18.988281 -26.117188 17.6875 -22.484375 C 16.382812 -18.859375 15.734375 -14.78125 15.734375 -10.25 C 15.734375 -8.5625 15.90625 -7.023438 16.25 -5.640625 C 16.59375 -4.265625 17.050781 -3.054688 17.625 -2.015625 C 18.207031 -0.972656 18.890625 -0.148438 19.671875 0.453125 C 20.460938 1.066406 21.316406 1.414062 22.234375 1.5 C 23.460938 1.226562 24.691406 0.601562 25.921875 -0.375 C 27.148438 -1.351562 28.273438 -2.503906 29.296875 -3.828125 C 30.316406 -5.148438 31.179688 -6.570312 31.890625 -8.09375 C 32.597656 -9.613281 33.03125 -11.0625 33.1875 -12.4375 C 32.101562 -12.207031 31.070312 -11.988281 30.09375 -11.78125 C 29.113281 -11.570312 28.1875 -11.46875 27.3125 -11.46875 C 26.15625 -11.46875 25.144531 -11.753906 24.28125 -12.328125 C 23.414062 -12.898438 22.832031 -13.6875 22.53125 -14.6875 C 23.21875 -15.070312 24.222656 -15.472656 25.546875 -15.890625 C 26.867188 -16.316406 28.28125 -16.710938 29.78125 -17.078125 C 31.28125 -17.441406 32.75 -17.738281 34.1875 -17.96875 C 35.625 -18.195312 36.804688 -18.3125 37.734375 -18.3125 Z M 37.734375 -18.3125 "/></g></g></g><g fill="#127055" fill-opacity="1"><g transform="translate(35.454305, 63.106197)"><g><path d="M 25.46875 -23.28125 C 25.851562 -23.28125 26.300781 -23.210938 26.8125 -23.078125 C 27.332031 -22.941406 27.800781 -22.765625 28.21875 -22.546875 C 28.644531 -22.335938 29 -22.117188 29.28125 -21.890625 C 29.570312 -21.660156 29.71875 -21.453125 29.71875 -21.265625 C 28.957031 -19.648438 28.25 -18.023438 27.59375 -16.390625 C 26.9375 -14.753906 26.378906 -13.1875 25.921875 -11.6875 C 25.460938 -10.195312 25.109375 -8.796875 24.859375 -7.484375 C 24.609375 -6.179688 24.484375 -5.050781 24.484375 -4.09375 C 24.484375 -3.019531 24.597656 -2.125 24.828125 -1.40625 C 25.054688 -0.695312 25.441406 -0.191406 25.984375 0.109375 C 25.523438 0.421875 24.925781 0.671875 24.1875 0.859375 C 23.457031 1.054688 22.804688 1.15625 22.234375 1.15625 C 20.160156 1.15625 19.125 -0.265625 19.125 -3.109375 C 19.125 -5.296875 19.851562 -8.289062 21.3125 -12.09375 C 20.539062 -10.332031 19.65625 -8.671875 18.65625 -7.109375 C 17.664062 -5.554688 16.648438 -4.179688 15.609375 -2.984375 C 14.578125 -1.796875 13.53125 -0.828125 12.46875 -0.078125 C 11.414062 0.660156 10.445312 1.109375 9.5625 1.265625 C 8.144531 1.191406 6.992188 0.515625 6.109375 -0.765625 C 5.222656 -2.054688 4.78125 -3.703125 4.78125 -5.703125 C 4.78125 -7.847656 5.238281 -10.113281 6.15625 -12.5 C 7.082031 -14.882812 8.265625 -17.09375 9.703125 -19.125 C 11.148438 -21.15625 12.71875 -22.851562 14.40625 -24.21875 C 16.09375 -25.582031 17.722656 -26.304688 19.296875 -26.390625 C 19.679688 -26.273438 20.113281 -26.039062 20.59375 -25.6875 C 21.070312 -25.34375 21.53125 -24.941406 21.96875 -24.484375 C 22.414062 -24.023438 22.789062 -23.554688 23.09375 -23.078125 C 23.40625 -22.597656 23.582031 -22.179688 23.625 -21.828125 C 22.082031 -21.597656 20.492188 -20.847656 18.859375 -19.578125 C 17.234375 -18.316406 15.753906 -16.789062 14.421875 -15 C 13.097656 -13.21875 12.015625 -11.304688 11.171875 -9.265625 C 10.328125 -7.234375 9.90625 -5.335938 9.90625 -3.578125 C 9.90625 -2.847656 10.175781 -2.382812 10.71875 -2.1875 C 11.832031 -2.414062 13.117188 -3.363281 14.578125 -5.03125 C 16.035156 -6.707031 17.800781 -9.296875 19.875 -12.796875 C 20.257812 -13.484375 20.691406 -14.25 21.171875 -15.09375 C 21.648438 -15.9375 22.140625 -16.816406 22.640625 -17.734375 C 23.140625 -18.660156 23.628906 -19.59375 24.109375 -20.53125 C 24.585938 -21.476562 25.039062 -22.394531 25.46875 -23.28125 Z M 25.46875 -23.28125 "/></g></g></g><g fill="#127055" fill-opacity="1"><g transform="translate(59.302337, 63.106197)"><g><path d="M 38.890625 -17.6875 C 38.273438 -17.644531 37.523438 -17.25 36.640625 -16.5 C 35.753906 -15.75 34.800781 -14.789062 33.78125 -13.625 C 32.769531 -12.457031 31.71875 -11.160156 30.625 -9.734375 C 29.53125 -8.316406 28.472656 -6.90625 27.453125 -5.5 C 26.429688 -4.101562 25.476562 -2.789062 24.59375 -1.5625 C 23.71875 -0.332031 22.972656 0.644531 22.359375 1.375 C 21.503906 1.03125 20.769531 0.523438 20.15625 -0.140625 C 19.539062 -0.816406 19.101562 -1.65625 18.84375 -2.65625 C 19.03125 -3.84375 19.296875 -5.078125 19.640625 -6.359375 C 19.984375 -7.648438 20.429688 -8.984375 20.984375 -10.359375 C 21.546875 -11.742188 22.238281 -13.195312 23.0625 -14.71875 C 23.894531 -16.238281 24.90625 -17.84375 26.09375 -19.53125 C 25.519531 -19.488281 24.734375 -19.070312 23.734375 -18.28125 C 22.734375 -17.5 21.65625 -16.484375 20.5 -15.234375 C 19.351562 -13.984375 18.164062 -12.582031 16.9375 -11.03125 C 15.707031 -9.476562 14.554688 -7.953125 13.484375 -6.453125 C 12.054688 -4.453125 10.875 -2.703125 9.9375 -1.203125 C 9 0.285156 8.316406 1.164062 7.890625 1.4375 C 6.890625 0.707031 6.195312 -0.078125 5.8125 -0.921875 C 5.4375 -1.765625 5.148438 -2.707031 4.953125 -3.75 C 4.992188 -4.664062 5.140625 -5.816406 5.390625 -7.203125 C 5.640625 -8.585938 5.992188 -10.007812 6.453125 -11.46875 C 7.335938 -14.269531 8.476562 -17.050781 9.875 -19.8125 C 11.28125 -22.582031 12.632812 -25.117188 13.9375 -27.421875 C 15.007812 -27.191406 15.976562 -26.828125 16.84375 -26.328125 C 17.707031 -25.828125 18.625 -25.097656 19.59375 -24.140625 C 19.207031 -22.953125 18.609375 -21.691406 17.796875 -20.359375 C 16.992188 -19.035156 16.148438 -17.644531 15.265625 -16.1875 C 14.378906 -14.726562 13.570312 -13.226562 12.84375 -11.6875 C 12.113281 -10.15625 11.632812 -8.601562 11.40625 -7.03125 C 12.476562 -8.5625 13.753906 -10.328125 15.234375 -12.328125 C 16.710938 -14.328125 18.226562 -16.207031 19.78125 -17.96875 C 21.34375 -19.738281 22.890625 -21.238281 24.421875 -22.46875 C 25.960938 -23.695312 27.347656 -24.3125 28.578125 -24.3125 C 29.035156 -24.3125 29.53125 -24.234375 30.0625 -24.078125 C 30.601562 -23.921875 31.101562 -23.726562 31.5625 -23.5 C 32.03125 -23.269531 32.414062 -23.050781 32.71875 -22.84375 C 33.03125 -22.632812 33.203125 -22.472656 33.234375 -22.359375 C 33.046875 -21.585938 32.597656 -20.535156 31.890625 -19.203125 C 31.179688 -17.878906 30.421875 -16.488281 29.609375 -15.03125 C 28.804688 -13.570312 28.054688 -12.160156 27.359375 -10.796875 C 26.671875 -9.429688 26.269531 -8.347656 26.15625 -7.546875 C 28.039062 -10.117188 29.804688 -12.453125 31.453125 -14.546875 C 33.109375 -16.640625 34.664062 -18.429688 36.125 -19.921875 C 37.582031 -21.421875 38.9375 -22.570312 40.1875 -23.375 C 41.4375 -24.1875 42.613281 -24.59375 43.71875 -24.59375 C 44.488281 -24.59375 45.207031 -24.390625 45.875 -23.984375 C 46.550781 -23.585938 47.023438 -23.003906 47.296875 -22.234375 C 46.953125 -21.085938 46.382812 -19.707031 45.59375 -18.09375 C 44.8125 -16.476562 44.015625 -14.773438 43.203125 -12.984375 C 42.398438 -11.203125 41.679688 -9.445312 41.046875 -7.71875 C 40.410156 -5.988281 40.09375 -4.429688 40.09375 -3.046875 C 40.09375 -2.242188 40.207031 -1.71875 40.4375 -1.46875 C 40.664062 -1.21875 40.992188 -1.09375 41.421875 -1.09375 C 41.878906 -1.09375 42.3125 -1.175781 42.71875 -1.34375 C 43.125 -1.519531 43.421875 -1.609375 43.609375 -1.609375 C 43.835938 -1.453125 43.972656 -1.257812 44.015625 -1.03125 C 44.054688 -0.800781 44.078125 -0.59375 44.078125 -0.40625 C 43.304688 0.207031 42.515625 0.71875 41.703125 1.125 C 40.898438 1.53125 40 1.734375 39 1.734375 C 38.082031 1.734375 37.320312 1.578125 36.71875 1.265625 C 36.125 0.960938 35.632812 0.539062 35.25 0 C 34.875 -0.539062 34.609375 -1.15625 34.453125 -1.84375 C 34.296875 -2.53125 34.21875 -3.28125 34.21875 -4.09375 C 34.21875 -5.394531 34.390625 -6.6875 34.734375 -7.96875 C 35.078125 -9.257812 35.488281 -10.488281 35.96875 -11.65625 C 36.457031 -12.832031 36.96875 -13.925781 37.5 -14.9375 C 38.039062 -15.957031 38.503906 -16.875 38.890625 -17.6875 Z M 38.890625 -17.6875 "/></g></g></g><g fill="#127055" fill-opacity="1"><g transform="translate(100.143576, 63.106197)"><g><path d="M 26.21875 -23.84375 C 26.0625 -21.46875 25.632812 -19.425781 24.9375 -17.71875 C 24.25 -16.007812 23.257812 -14.507812 21.96875 -13.21875 C 20.6875 -11.9375 19.125 -10.773438 17.28125 -9.734375 C 15.4375 -8.703125 13.285156 -7.703125 10.828125 -6.734375 C 10.828125 -6.503906 10.816406 -6.265625 10.796875 -6.015625 C 10.773438 -5.765625 10.765625 -5.507812 10.765625 -5.25 C 10.765625 -4.75 10.800781 -4.226562 10.875 -3.6875 C 10.957031 -3.144531 11.09375 -2.644531 11.28125 -2.1875 C 11.476562 -1.726562 11.75 -1.351562 12.09375 -1.0625 C 12.4375 -0.78125 12.878906 -0.640625 13.421875 -0.640625 C 14.460938 -0.640625 15.476562 -0.867188 16.46875 -1.328125 C 17.46875 -1.785156 18.421875 -2.347656 19.328125 -3.015625 C 20.234375 -3.691406 21.078125 -4.421875 21.859375 -5.203125 C 22.648438 -5.992188 23.351562 -6.71875 23.96875 -7.375 C 24.351562 -7.03125 24.675781 -6.703125 24.9375 -6.390625 C 23.21875 -4.085938 21.328125 -2.175781 19.265625 -0.65625 C 17.210938 0.851562 15.265625 1.820312 13.421875 2.25 C 10.773438 1.9375 8.710938 0.96875 7.234375 -0.65625 C 5.753906 -2.289062 5.015625 -4.257812 5.015625 -6.5625 C 5.015625 -8.132812 5.234375 -9.738281 5.671875 -11.375 C 6.117188 -13.007812 6.734375 -14.582031 7.515625 -16.09375 C 8.304688 -17.613281 9.226562 -19.046875 10.28125 -20.390625 C 11.34375 -21.734375 12.476562 -22.90625 13.6875 -23.90625 C 14.894531 -24.90625 16.140625 -25.691406 17.421875 -26.265625 C 18.710938 -26.847656 19.992188 -27.140625 21.265625 -27.140625 C 23.023438 -26.898438 24.675781 -25.800781 26.21875 -23.84375 Z M 22.234375 -21.953125 C 21.203125 -21.796875 20.128906 -21.367188 19.015625 -20.671875 C 17.898438 -19.984375 16.851562 -19.0625 15.875 -17.90625 C 14.894531 -16.757812 14 -15.414062 13.1875 -13.875 C 12.382812 -12.34375 11.753906 -10.691406 11.296875 -8.921875 C 14.367188 -10.460938 16.921875 -12.351562 18.953125 -14.59375 C 20.984375 -16.84375 22.078125 -19.296875 22.234375 -21.953125 Z M 22.234375 -21.953125 "/></g></g></g><g fill="#127055" fill-opacity="1"><g transform="translate(120.189739, 63.106197)"><g/></g></g><g fill="#127055" fill-opacity="1"><g transform="translate(130.673621, 63.106197)"><g><path d="M 45.046875 -31.046875 C 45.046875 -28.941406 44.515625 -26.925781 43.453125 -25 C 42.398438 -23.082031 40.984375 -21.398438 39.203125 -19.953125 C 37.421875 -18.515625 35.328125 -17.375 32.921875 -16.53125 C 30.523438 -15.6875 27.984375 -15.265625 25.296875 -15.265625 C 24.328125 -15.265625 23.5625 -15.390625 23 -15.640625 C 22.445312 -15.890625 21.828125 -16.378906 21.140625 -17.109375 C 19.222656 -12.921875 17.65625 -9.066406 16.4375 -5.546875 C 15.226562 -2.035156 14.28125 1.367188 13.59375 4.671875 C 12.132812 4.316406 10.941406 3.707031 10.015625 2.84375 C 9.097656 1.988281 8.253906 0.90625 7.484375 -0.40625 C 7.867188 -1.132812 8.328125 -2.09375 8.859375 -3.28125 C 9.398438 -4.46875 10.054688 -5.9375 10.828125 -7.6875 C 11.597656 -9.4375 12.488281 -11.53125 13.5 -13.96875 C 14.519531 -16.40625 15.722656 -19.257812 17.109375 -22.53125 C 17.722656 -24.019531 18.257812 -25.320312 18.71875 -26.4375 C 19.1875 -27.550781 19.59375 -28.597656 19.9375 -29.578125 C 20.28125 -30.554688 20.59375 -31.523438 20.875 -32.484375 C 21.164062 -33.453125 21.46875 -34.507812 21.78125 -35.65625 C 19.96875 -35.082031 18.300781 -34.410156 16.78125 -33.640625 C 15.269531 -32.867188 14.015625 -32.0625 13.015625 -31.21875 C 12.671875 -31.445312 12.316406 -31.789062 11.953125 -32.25 C 11.585938 -32.71875 11.25 -33.226562 10.9375 -33.78125 C 10.632812 -34.34375 10.367188 -34.910156 10.140625 -35.484375 C 9.910156 -36.054688 9.773438 -36.578125 9.734375 -37.046875 C 10.847656 -37.804688 12.226562 -38.515625 13.875 -39.171875 C 15.53125 -39.828125 17.296875 -40.394531 19.171875 -40.875 C 21.054688 -41.351562 23.007812 -41.726562 25.03125 -42 C 27.050781 -42.269531 28.984375 -42.40625 30.828125 -42.40625 C 33.015625 -42.40625 34.988281 -42.125 36.75 -41.5625 C 38.519531 -41.007812 40.019531 -40.234375 41.25 -39.234375 C 42.476562 -38.234375 43.414062 -37.039062 44.0625 -35.65625 C 44.71875 -34.28125 45.046875 -32.742188 45.046875 -31.046875 Z M 34.796875 -37.96875 C 33.335938 -37.96875 31.835938 -37.851562 30.296875 -37.625 L 31 -36.578125 C 30.613281 -36.078125 30.128906 -35.328125 29.546875 -34.328125 C 28.972656 -33.335938 28.335938 -32.140625 27.640625 -30.734375 C 26.953125 -29.328125 26.195312 -27.757812 25.375 -26.03125 C 24.550781 -24.3125 23.675781 -22.488281 22.75 -20.5625 C 25.75 -20.5625 28.476562 -20.835938 30.9375 -21.390625 C 33.394531 -21.953125 35.492188 -22.722656 37.234375 -23.703125 C 38.984375 -24.679688 40.347656 -25.820312 41.328125 -27.125 C 42.304688 -28.4375 42.796875 -29.84375 42.796875 -31.34375 C 42.796875 -33.332031 42.125 -34.929688 40.78125 -36.140625 C 39.4375 -37.359375 37.441406 -37.96875 34.796875 -37.96875 Z M 34.796875 -37.96875 "/></g></g></g><g fill="#127055" fill-opacity="1"><g transform="translate(164.429548, 63.106197)"><g><path d="M 5.53125 -3.6875 C 5.53125 -5.375 5.929688 -7.742188 6.734375 -10.796875 C 7.546875 -13.847656 8.679688 -17.410156 10.140625 -21.484375 C 12.523438 -27.972656 14.757812 -33.378906 16.84375 -37.703125 C 18.9375 -42.023438 20.984375 -45.394531 22.984375 -47.8125 C 23.441406 -47.738281 24.003906 -47.546875 24.671875 -47.234375 C 25.347656 -46.929688 26.015625 -46.597656 26.671875 -46.234375 C 27.328125 -45.867188 27.910156 -45.492188 28.421875 -45.109375 C 28.941406 -44.722656 29.28125 -44.414062 29.4375 -44.1875 C 26.4375 -40.65625 23.800781 -36.851562 21.53125 -32.78125 C 19.269531 -28.707031 17.203125 -24.039062 15.328125 -18.78125 C 13.710938 -14.25 12.484375 -10.164062 11.640625 -6.53125 C 10.796875 -2.90625 10.375 0.113281 10.375 2.53125 C 10.375 3.1875 10.375 3.585938 10.375 3.734375 C 10.375 3.890625 10.390625 4.046875 10.421875 4.203125 C 9.890625 4.128906 9.429688 3.992188 9.046875 3.796875 C 8.660156 3.609375 8.410156 3.378906 8.296875 3.109375 C 8.222656 2.921875 8.007812 2.644531 7.65625 2.28125 C 7.3125 1.914062 7.003906 1.632812 6.734375 1.4375 C 6.390625 1.207031 6.101562 0.601562 5.875 -0.375 C 5.644531 -1.351562 5.53125 -2.457031 5.53125 -3.6875 Z M 5.53125 -3.6875 "/></g></g></g><g fill="#127055" fill-opacity="1"><g transform="translate(174.798223, 63.106197)"><g><path d="M 25.46875 -23.28125 C 25.851562 -23.28125 26.300781 -23.210938 26.8125 -23.078125 C 27.332031 -22.941406 27.800781 -22.765625 28.21875 -22.546875 C 28.644531 -22.335938 29 -22.117188 29.28125 -21.890625 C 29.570312 -21.660156 29.71875 -21.453125 29.71875 -21.265625 C 28.957031 -19.648438 28.25 -18.023438 27.59375 -16.390625 C 26.9375 -14.753906 26.378906 -13.1875 25.921875 -11.6875 C 25.460938 -10.195312 25.109375 -8.796875 24.859375 -7.484375 C 24.609375 -6.179688 24.484375 -5.050781 24.484375 -4.09375 C 24.484375 -3.019531 24.597656 -2.125 24.828125 -1.40625 C 25.054688 -0.695312 25.441406 -0.191406 25.984375 0.109375 C 25.523438 0.421875 24.925781 0.671875 24.1875 0.859375 C 23.457031 1.054688 22.804688 1.15625 22.234375 1.15625 C 20.160156 1.15625 19.125 -0.265625 19.125 -3.109375 C 19.125 -5.296875 19.851562 -8.289062 21.3125 -12.09375 C 20.539062 -10.332031 19.65625 -8.671875 18.65625 -7.109375 C 17.664062 -5.554688 16.648438 -4.179688 15.609375 -2.984375 C 14.578125 -1.796875 13.53125 -0.828125 12.46875 -0.078125 C 11.414062 0.660156 10.445312 1.109375 9.5625 1.265625 C 8.144531 1.191406 6.992188 0.515625 6.109375 -0.765625 C 5.222656 -2.054688 4.78125 -3.703125 4.78125 -5.703125 C 4.78125 -7.847656 5.238281 -10.113281 6.15625 -12.5 C 7.082031 -14.882812 8.265625 -17.09375 9.703125 -19.125 C 11.148438 -21.15625 12.71875 -22.851562 14.40625 -24.21875 C 16.09375 -25.582031 17.722656 -26.304688 19.296875 -26.390625 C 19.679688 -26.273438 20.113281 -26.039062 20.59375 -25.6875 C 21.070312 -25.34375 21.53125 -24.941406 21.96875 -24.484375 C 22.414062 -24.023438 22.789062 -23.554688 23.09375 -23.078125 C 23.40625 -22.597656 23.582031 -22.179688 23.625 -21.828125 C 22.082031 -21.597656 20.492188 -20.847656 18.859375 -19.578125 C 17.234375 -18.316406 15.753906 -16.789062 14.421875 -15 C 13.097656 -13.21875 12.015625 -11.304688 11.171875 -9.265625 C 10.328125 -7.234375 9.90625 -5.335938 9.90625 -3.578125 C 9.90625 -2.847656 10.175781 -2.382812 10.71875 -2.1875 C 11.832031 -2.414062 13.117188 -3.363281 14.578125 -5.03125 C 16.035156 -6.707031 17.800781 -9.296875 19.875 -12.796875 C 20.257812 -13.484375 20.691406 -14.25 21.171875 -15.09375 C 21.648438 -15.9375 22.140625 -16.816406 22.640625 -17.734375 C 23.140625 -18.660156 23.628906 -19.59375 24.109375 -20.53125 C 24.585938 -21.476562 25.039062 -22.394531 25.46875 -23.28125 Z M 25.46875 -23.28125 "/></g></g></g><g fill="#127055" fill-opacity="1"><g transform="translate(198.646254, 63.106197)"><g><path d="M 14.921875 -27.9375 C 15.921875 -27.632812 16.859375 -26.953125 17.734375 -25.890625 C 18.617188 -24.835938 19.273438 -23.675781 19.703125 -22.40625 C 19.273438 -21.375 18.617188 -20.125 17.734375 -18.65625 C 16.859375 -17.195312 15.976562 -15.707031 15.09375 -14.1875 C 14.207031 -12.675781 13.410156 -11.238281 12.703125 -9.875 C 11.992188 -8.507812 11.582031 -7.390625 11.46875 -6.515625 C 12.082031 -7.160156 12.757812 -7.914062 13.5 -8.78125 C 14.25 -9.644531 14.976562 -10.507812 15.6875 -11.375 C 16.40625 -12.238281 17.070312 -13.023438 17.6875 -13.734375 C 18.300781 -14.453125 18.78125 -14.984375 19.125 -15.328125 C 19.851562 -16.085938 20.71875 -16.976562 21.71875 -18 C 22.71875 -19.019531 23.765625 -19.976562 24.859375 -20.875 C 25.953125 -21.78125 27.054688 -22.550781 28.171875 -23.1875 C 29.285156 -23.820312 30.300781 -24.140625 31.21875 -24.140625 C 32.21875 -24.140625 33.050781 -23.800781 33.71875 -23.125 C 34.394531 -22.457031 34.925781 -21.757812 35.3125 -21.03125 C 35.3125 -20.945312 35.164062 -20.835938 34.875 -20.703125 C 34.59375 -20.578125 34.179688 -20.207031 33.640625 -19.59375 C 33.109375 -18.894531 32.503906 -17.941406 31.828125 -16.734375 C 31.160156 -15.523438 30.507812 -14.21875 29.875 -12.8125 C 29.238281 -11.414062 28.707031 -9.988281 28.28125 -8.53125 C 27.863281 -7.070312 27.65625 -5.742188 27.65625 -4.546875 C 27.65625 -3.585938 27.78125 -2.972656 28.03125 -2.703125 C 28.28125 -2.429688 28.632812 -2.296875 29.09375 -2.296875 C 29.507812 -2.296875 29.945312 -2.390625 30.40625 -2.578125 C 30.875 -2.773438 31.242188 -2.875 31.515625 -2.875 C 31.671875 -2.800781 31.796875 -2.640625 31.890625 -2.390625 C 31.984375 -2.140625 32.03125 -1.921875 32.03125 -1.734375 C 31.71875 -1.460938 31.347656 -1.191406 30.921875 -0.921875 C 30.503906 -0.648438 30.066406 -0.398438 29.609375 -0.171875 C 29.148438 0.0546875 28.695312 0.25 28.25 0.40625 C 27.8125 0.5625 27.421875 0.640625 27.078125 0.640625 C 25.960938 0.640625 25.050781 0.472656 24.34375 0.140625 C 23.632812 -0.179688 23.078125 -0.609375 22.671875 -1.140625 C 22.265625 -1.679688 21.984375 -2.328125 21.828125 -3.078125 C 21.679688 -3.828125 21.609375 -4.625 21.609375 -5.46875 C 21.609375 -5.9375 21.644531 -6.457031 21.71875 -7.03125 C 21.789062 -7.601562 21.941406 -8.28125 22.171875 -9.0625 C 22.410156 -9.851562 22.738281 -10.796875 23.15625 -11.890625 C 23.582031 -12.984375 24.117188 -14.300781 24.765625 -15.84375 C 24.691406 -15.84375 24.175781 -15.570312 23.21875 -15.03125 C 22.257812 -14.5 21.222656 -13.675781 20.109375 -12.5625 C 18.296875 -10.832031 16.671875 -9.117188 15.234375 -7.421875 C 13.796875 -5.734375 12.328125 -3.851562 10.828125 -1.78125 C 9.984375 -0.59375 9.242188 0.410156 8.609375 1.234375 C 7.972656 2.066406 7.425781 2.613281 6.96875 2.875 C 6.164062 2.414062 5.570312 1.773438 5.1875 0.953125 C 4.800781 0.128906 4.515625 -0.722656 4.328125 -1.609375 C 4.328125 -2.335938 4.429688 -3.257812 4.640625 -4.375 C 4.847656 -5.488281 5.132812 -6.726562 5.5 -8.09375 C 5.863281 -9.457031 6.3125 -10.882812 6.84375 -12.375 C 7.382812 -13.875 7.984375 -15.375 8.640625 -16.875 C 10.097656 -20.257812 11.429688 -22.910156 12.640625 -24.828125 C 13.847656 -26.742188 14.609375 -27.78125 14.921875 -27.9375 Z M 14.921875 -27.9375 "/></g></g></g></g></g><g fill="#ffffff" fill-opacity="1"><g transform="translate(79.789737, 113.095733)"><g><path d="M 7.140625 0.3125 C 5.984375 0.3125 4.9375 0.0234375 4 -0.546875 C 3.0625 -1.117188 2.304688 -1.890625 1.734375 -2.859375 C 1.171875 -3.828125 0.890625 -4.910156 0.890625 -6.109375 L 0.890625 -16.25 C 0.890625 -17.40625 1.171875 -18.46875 1.734375 -19.4375 C 2.304688 -20.40625 3.066406 -21.175781 4.015625 -21.75 C 4.960938 -22.332031 6.003906 -22.625 7.140625 -22.625 C 8.304688 -22.625 9.363281 -22.335938 10.3125 -21.765625 C 11.269531 -21.203125 12.023438 -20.441406 12.578125 -19.484375 C 13.128906 -18.523438 13.40625 -17.445312 13.40625 -16.25 L 13.40625 -14.78125 C 13.40625 -14.695312 13.351562 -14.65625 13.25 -14.65625 L 9.65625 -14.65625 C 9.570312 -14.65625 9.53125 -14.695312 9.53125 -14.78125 L 9.53125 -16 C 9.53125 -16.8125 9.300781 -17.484375 8.84375 -18.015625 C 8.382812 -18.546875 7.816406 -18.8125 7.140625 -18.8125 C 6.515625 -18.8125 5.960938 -18.554688 5.484375 -18.046875 C 5.003906 -17.535156 4.765625 -16.9375 4.765625 -16.25 L 4.765625 -6.109375 C 4.765625 -5.410156 5 -4.804688 5.46875 -4.296875 C 5.9375 -3.796875 6.492188 -3.546875 7.140625 -3.546875 C 7.816406 -3.546875 8.382812 -3.789062 8.84375 -4.28125 C 9.300781 -4.78125 9.53125 -5.390625 9.53125 -6.109375 L 9.53125 -7.6875 L 7.296875 -7.6875 C 7.191406 -7.6875 7.140625 -7.738281 7.140625 -7.84375 L 7.140625 -11.421875 C 7.140625 -11.523438 7.191406 -11.578125 7.296875 -11.578125 L 13.28125 -11.578125 C 13.363281 -11.578125 13.40625 -11.523438 13.40625 -11.421875 L 13.40625 -6.109375 C 13.40625 -4.910156 13.125 -3.828125 12.5625 -2.859375 C 12 -1.890625 11.242188 -1.117188 10.296875 -0.546875 C 9.359375 0.0234375 8.304688 0.3125 7.140625 0.3125 Z M 7.140625 0.3125 "/></g></g></g><g fill="#ffffff" fill-opacity="1"><g transform="translate(94.186198, 113.095733)"><g><path d="M 7.203125 0.3125 C 6.046875 0.3125 4.992188 0.0195312 4.046875 -0.5625 C 3.097656 -1.144531 2.332031 -1.921875 1.75 -2.890625 C 1.175781 -3.867188 0.890625 -4.941406 0.890625 -6.109375 L 0.921875 -16.25 C 0.921875 -17.425781 1.203125 -18.492188 1.765625 -19.453125 C 2.335938 -20.410156 3.101562 -21.175781 4.0625 -21.75 C 5.019531 -22.332031 6.066406 -22.625 7.203125 -22.625 C 8.347656 -22.625 9.390625 -22.332031 10.328125 -21.75 C 11.273438 -21.175781 12.03125 -20.410156 12.59375 -19.453125 C 13.15625 -18.492188 13.4375 -17.425781 13.4375 -16.25 L 13.46875 -6.109375 C 13.46875 -4.941406 13.1875 -3.867188 12.625 -2.890625 C 12.0625 -1.921875 11.300781 -1.144531 10.34375 -0.5625 C 9.394531 0.0195312 8.347656 0.3125 7.203125 0.3125 Z M 7.203125 -3.546875 C 7.835938 -3.546875 8.394531 -3.804688 8.875 -4.328125 C 9.351562 -4.859375 9.59375 -5.453125 9.59375 -6.109375 L 9.5625 -16.25 C 9.5625 -16.957031 9.335938 -17.554688 8.890625 -18.046875 C 8.441406 -18.535156 7.878906 -18.78125 7.203125 -18.78125 C 6.535156 -18.78125 5.96875 -18.539062 5.5 -18.0625 C 5.03125 -17.582031 4.796875 -16.976562 4.796875 -16.25 L 4.796875 -6.109375 C 4.796875 -5.410156 5.03125 -4.804688 5.5 -4.296875 C 5.96875 -3.796875 6.535156 -3.546875 7.203125 -3.546875 Z M 7.203125 -3.546875 "/></g></g></g><g fill="#ffffff" fill-opacity="1"><g transform="translate(108.806608, 113.095733)"><g><path d="M 1.40625 0 C 1.320312 0 1.28125 -0.0507812 1.28125 -0.15625 L 1.3125 -22.109375 C 1.3125 -22.210938 1.363281 -22.265625 1.46875 -22.265625 L 5.03125 -22.265625 C 5.132812 -22.265625 5.1875 -22.210938 5.1875 -22.109375 L 5.15625 -3.9375 L 11.75 -3.9375 C 11.851562 -3.9375 11.90625 -3.882812 11.90625 -3.78125 L 11.90625 -0.15625 C 11.90625 -0.0507812 11.851562 0 11.75 0 Z M 1.40625 0 "/></g></g></g><g fill="#ffffff" fill-opacity="1"><g transform="translate(121.507489, 113.095733)"><g><path d="M 1.4375 0 C 1.332031 0 1.28125 -0.0507812 1.28125 -0.15625 L 1.34375 -22.140625 C 1.34375 -22.222656 1.382812 -22.265625 1.46875 -22.265625 L 11.71875 -22.265625 C 11.820312 -22.265625 11.875 -22.222656 11.875 -22.140625 L 11.875 -18.53125 C 11.875 -18.445312 11.832031 -18.40625 11.75 -18.40625 L 5.1875 -18.40625 L 5.1875 -13.4375 L 11.75 -13.4375 C 11.832031 -13.4375 11.875 -13.382812 11.875 -13.28125 L 11.90625 -9.65625 C 11.90625 -9.570312 11.851562 -9.53125 11.75 -9.53125 L 5.1875 -9.53125 L 5.1875 -0.15625 C 5.1875 -0.0507812 5.132812 0 5.03125 0 Z M 1.4375 0 "/></g></g></g><g fill="#ffffff" fill-opacity="1"><g transform="translate(134.985047, 113.095733)"><g/></g></g><g fill="#ffffff" fill-opacity="1"><g transform="translate(139.719879, 113.095733)"><g/></g></g><g fill="#ffffff" fill-opacity="1"><g transform="translate(144.465515, 113.095733)"><g><path d="M 1.4375 0 C 1.332031 0 1.28125 -0.0507812 1.28125 -0.15625 L 1.34375 -22.140625 C 1.34375 -22.222656 1.382812 -22.265625 1.46875 -22.265625 L 7.609375 -22.265625 C 9.578125 -22.265625 11.128906 -21.664062 12.265625 -20.46875 C 13.410156 -19.28125 13.984375 -17.660156 13.984375 -15.609375 C 13.984375 -14.097656 13.679688 -12.785156 13.078125 -11.671875 C 12.484375 -10.566406 11.707031 -9.710938 10.75 -9.109375 C 9.789062 -8.515625 8.742188 -8.21875 7.609375 -8.21875 L 5.1875 -8.21875 L 5.1875 -0.15625 C 5.1875 -0.0507812 5.132812 0 5.03125 0 Z M 5.1875 -12.09375 L 7.609375 -12.09375 C 8.296875 -12.09375 8.890625 -12.414062 9.390625 -13.0625 C 9.890625 -13.71875 10.140625 -14.566406 10.140625 -15.609375 C 10.140625 -16.441406 9.914062 -17.125 9.46875 -17.65625 C 9.019531 -18.195312 8.398438 -18.46875 7.609375 -18.46875 L 5.1875 -18.4375 Z M 5.1875 -12.09375 "/></g></g></g><g fill="#ffffff" fill-opacity="1"><g transform="translate(159.341861, 113.095733)"><g><path d="M 1.40625 0 C 1.320312 0 1.28125 -0.0507812 1.28125 -0.15625 L 1.3125 -22.140625 C 1.3125 -22.222656 1.351562 -22.265625 1.4375 -22.265625 L 11.71875 -22.265625 C 11.800781 -22.265625 11.84375 -22.210938 11.84375 -22.109375 L 11.84375 -18.53125 C 11.84375 -18.445312 11.800781 -18.40625 11.71875 -18.40625 L 5.15625 -18.40625 L 5.15625 -13.40625 L 11.71875 -13.40625 C 11.800781 -13.40625 11.84375 -13.363281 11.84375 -13.28125 L 11.875 -9.65625 C 11.875 -9.570312 11.832031 -9.53125 11.75 -9.53125 L 5.15625 -9.53125 L 5.15625 -3.9375 L 11.75 -3.9375 C 11.832031 -3.9375 11.875 -3.882812 11.875 -3.78125 L 11.875 -0.125 C 11.875 -0.0390625 11.832031 0 11.75 0 Z M 1.40625 0 "/></g></g></g><g fill="#ffffff" fill-opacity="1"><g transform="translate(172.778563, 113.095733)"><g><path d="M 1.40625 0 C 1.320312 0 1.28125 -0.0507812 1.28125 -0.15625 L 1.34375 -22.140625 C 1.34375 -22.222656 1.382812 -22.265625 1.46875 -22.265625 L 7.9375 -22.265625 C 9.082031 -22.265625 10.140625 -21.984375 11.109375 -21.421875 C 12.085938 -20.859375 12.863281 -20.101562 13.4375 -19.15625 C 14.007812 -18.207031 14.296875 -17.132812 14.296875 -15.9375 C 14.296875 -15.144531 14.175781 -14.429688 13.9375 -13.796875 C 13.707031 -13.171875 13.429688 -12.640625 13.109375 -12.203125 C 12.796875 -11.765625 12.507812 -11.441406 12.25 -11.234375 C 13.40625 -9.953125 13.984375 -8.445312 13.984375 -6.71875 L 14.015625 -0.15625 C 14.015625 -0.0507812 13.960938 0 13.859375 0 L 10.234375 0 C 10.148438 0 10.109375 -0.03125 10.109375 -0.09375 L 10.109375 -6.71875 C 10.109375 -7.488281 9.835938 -8.15625 9.296875 -8.71875 C 8.753906 -9.28125 8.085938 -9.5625 7.296875 -9.5625 L 5.1875 -9.5625 L 5.15625 -0.15625 C 5.15625 -0.0507812 5.113281 0 5.03125 0 Z M 5.1875 -13.40625 L 7.9375 -13.40625 C 8.59375 -13.40625 9.175781 -13.648438 9.6875 -14.140625 C 10.207031 -14.628906 10.46875 -15.226562 10.46875 -15.9375 C 10.46875 -16.613281 10.210938 -17.195312 9.703125 -17.6875 C 9.203125 -18.1875 8.613281 -18.4375 7.9375 -18.4375 L 5.1875 -18.4375 Z M 5.1875 -13.40625 "/></g></g></g><g fill="#ffffff" fill-opacity="1"><g transform="translate(188.198777, 113.095733)"><g><path d="M 1.4375 0 C 1.332031 0 1.28125 -0.0507812 1.28125 -0.15625 L 1.34375 -22.140625 C 1.34375 -22.222656 1.382812 -22.265625 1.46875 -22.265625 L 11.71875 -22.265625 C 11.820312 -22.265625 11.875 -22.222656 11.875 -22.140625 L 11.875 -18.53125 C 11.875 -18.445312 11.832031 -18.40625 11.75 -18.40625 L 5.1875 -18.40625 L 5.1875 -13.4375 L 11.75 -13.4375 C 11.832031 -13.4375 11.875 -13.382812 11.875 -13.28125 L 11.90625 -9.65625 C 11.90625 -9.570312 11.851562 -9.53125 11.75 -9.53125 L 5.1875 -9.53125 L 5.1875 -0.15625 C 5.1875 -0.0507812 5.132812 0 5.03125 0 Z M 1.4375 0 "/></g></g></g><g fill="#ffffff" fill-opacity="1"><g transform="translate(201.667466, 113.095733)"><g><path d="M 7.203125 0.3125 C 6.046875 0.3125 4.992188 0.0195312 4.046875 -0.5625 C 3.097656 -1.144531 2.332031 -1.921875 1.75 -2.890625 C 1.175781 -3.867188 0.890625 -4.941406 0.890625 -6.109375 L 0.921875 -16.25 C 0.921875 -17.425781 1.203125 -18.492188 1.765625 -19.453125 C 2.335938 -20.410156 3.101562 -21.175781 4.0625 -21.75 C 5.019531 -22.332031 6.066406 -22.625 7.203125 -22.625 C 8.347656 -22.625 9.390625 -22.332031 10.328125 -21.75 C 11.273438 -21.175781 12.03125 -20.410156 12.59375 -19.453125 C 13.15625 -18.492188 13.4375 -17.425781 13.4375 -16.25 L 13.46875 -6.109375 C 13.46875 -4.941406 13.1875 -3.867188 12.625 -2.890625 C 12.0625 -1.921875 11.300781 -1.144531 10.34375 -0.5625 C 9.394531 0.0195312 8.347656 0.3125 7.203125 0.3125 Z M 7.203125 -3.546875 C 7.835938 -3.546875 8.394531 -3.804688 8.875 -4.328125 C 9.351562 -4.859375 9.59375 -5.453125 9.59375 -6.109375 L 9.5625 -16.25 C 9.5625 -16.957031 9.335938 -17.554688 8.890625 -18.046875 C 8.441406 -18.535156 7.878906 -18.78125 7.203125 -18.78125 C 6.535156 -18.78125 5.96875 -18.539062 5.5 -18.0625 C 5.03125 -17.582031 4.796875 -16.976562 4.796875 -16.25 L 4.796875 -6.109375 C 4.796875 -5.410156 5.03125 -4.804688 5.5 -4.296875 C 5.96875 -3.796875 6.535156 -3.546875 7.203125 -3.546875 Z M 7.203125 -3.546875 "/></g></g></g><g fill="#ffffff" fill-opacity="1"><g transform="translate(216.287875, 113.095733)"><g><path d="M 1.40625 0 C 1.320312 0 1.28125 -0.0507812 1.28125 -0.15625 L 1.34375 -22.140625 C 1.34375 -22.222656 1.382812 -22.265625 1.46875 -22.265625 L 7.9375 -22.265625 C 9.082031 -22.265625 10.140625 -21.984375 11.109375 -21.421875 C 12.085938 -20.859375 12.863281 -20.101562 13.4375 -19.15625 C 14.007812 -18.207031 14.296875 -17.132812 14.296875 -15.9375 C 14.296875 -15.144531 14.175781 -14.429688 13.9375 -13.796875 C 13.707031 -13.171875 13.429688 -12.640625 13.109375 -12.203125 C 12.796875 -11.765625 12.507812 -11.441406 12.25 -11.234375 C 13.40625 -9.953125 13.984375 -8.445312 13.984375 -6.71875 L 14.015625 -0.15625 C 14.015625 -0.0507812 13.960938 0 13.859375 0 L 10.234375 0 C 10.148438 0 10.109375 -0.03125 10.109375 -0.09375 L 10.109375 -6.71875 C 10.109375 -7.488281 9.835938 -8.15625 9.296875 -8.71875 C 8.753906 -9.28125 8.085938 -9.5625 7.296875 -9.5625 L 5.1875 -9.5625 L 5.15625 -0.15625 C 5.15625 -0.0507812 5.113281 0 5.03125 0 Z M 5.1875 -13.40625 L 7.9375 -13.40625 C 8.59375 -13.40625 9.175781 -13.648438 9.6875 -14.140625 C 10.207031 -14.628906 10.46875 -15.226562 10.46875 -15.9375 C 10.46875 -16.613281 10.210938 -17.195312 9.703125 -17.6875 C 9.203125 -18.1875 8.613281 -18.4375 7.9375 -18.4375 L 5.1875 -18.4375 Z M 5.1875 -13.40625 "/></g></g></g><g fill="#ffffff" fill-opacity="1"><g transform="translate(231.70809, 113.095733)"><g><path d="M 1.40625 0 C 1.320312 0 1.28125 -0.0507812 1.28125 -0.15625 L 1.34375 -22.140625 C 1.34375 -22.222656 1.382812 -22.265625 1.46875 -22.265625 L 5.375 -22.265625 C 5.457031 -22.265625 5.53125 -22.222656 5.59375 -22.140625 L 8.515625 -17.921875 L 11.421875 -22.140625 C 11.484375 -22.222656 11.554688 -22.265625 11.640625 -22.265625 L 15.578125 -22.265625 C 15.671875 -22.265625 15.71875 -22.222656 15.71875 -22.140625 L 15.78125 -0.15625 C 15.78125 -0.0507812 15.734375 0 15.640625 0 L 12.03125 0 C 11.945312 0 11.90625 -0.0507812 11.90625 -0.15625 L 11.875 -16.484375 L 8.515625 -11.609375 L 5.1875 -16.484375 L 5.15625 -0.15625 C 5.15625 -0.0507812 5.113281 0 5.03125 0 Z M 1.40625 0 "/></g></g></g><g fill="#ffffff" fill-opacity="1"><g transform="translate(248.887868, 113.095733)"><g><path d="M 0.1875 -0.15625 L 4.15625 -22.140625 C 4.175781 -22.222656 4.226562 -22.265625 4.3125 -22.265625 L 8.953125 -22.265625 C 9.046875 -22.265625 9.101562 -22.222656 9.125 -22.140625 L 12.921875 -0.15625 C 12.941406 -0.0507812 12.898438 0 12.796875 0 L 9.25 0 C 9.164062 0 9.113281 -0.0507812 9.09375 -0.15625 L 8.734375 -2.5 L 4.390625 -2.5 L 4.03125 -0.15625 C 4.007812 -0.0507812 3.957031 0 3.875 0 L 0.3125 0 C 0.226562 0 0.1875 -0.0507812 0.1875 -0.15625 Z M 5.03125 -5.921875 L 8.09375 -5.921875 L 6.78125 -14.90625 L 6.59375 -16.09375 L 6.46875 -14.90625 Z M 5.03125 -5.921875 "/></g></g></g><g fill="#ffffff" fill-opacity="1"><g transform="translate(262.548508, 113.095733)"><g><path d="M 1.5625 0 C 1.394531 0 1.3125 -0.0703125 1.3125 -0.21875 L 1.28125 -22.015625 C 1.28125 -22.179688 1.363281 -22.265625 1.53125 -22.265625 L 4.421875 -22.265625 L 9.828125 -9.65625 L 9.65625 -22.015625 C 9.65625 -22.179688 9.753906 -22.265625 9.953125 -22.265625 L 13.125 -22.265625 C 13.25 -22.265625 13.3125 -22.179688 13.3125 -22.015625 L 13.34375 -0.1875 C 13.34375 -0.0625 13.289062 0 13.1875 0 L 10.375 0 L 4.828125 -11.78125 L 5.0625 -0.25 C 5.0625 -0.0820312 4.960938 0 4.765625 0 Z M 1.5625 0 "/></g></g></g><g fill="#ffffff" fill-opacity="1"><g transform="translate(277.392856, 113.095733)"><g><path d="M 7.171875 0.3125 C 5.992188 0.3125 4.929688 0.0195312 3.984375 -0.5625 C 3.035156 -1.144531 2.28125 -1.925781 1.71875 -2.90625 C 1.164062 -3.894531 0.890625 -4.992188 0.890625 -6.203125 L 0.921875 -16.1875 C 0.921875 -17.363281 1.191406 -18.4375 1.734375 -19.40625 C 2.285156 -20.375 3.035156 -21.148438 3.984375 -21.734375 C 4.929688 -22.328125 5.992188 -22.625 7.171875 -22.625 C 8.335938 -22.625 9.390625 -22.332031 10.328125 -21.75 C 11.273438 -21.175781 12.023438 -20.40625 12.578125 -19.4375 C 13.128906 -18.46875 13.40625 -17.382812 13.40625 -16.1875 L 13.40625 -14.71875 C 13.40625 -14.632812 13.363281 -14.59375 13.28125 -14.59375 L 9.703125 -14.59375 C 9.609375 -14.59375 9.5625 -14.632812 9.5625 -14.71875 L 9.5625 -16.1875 C 9.5625 -16.894531 9.332031 -17.503906 8.875 -18.015625 C 8.414062 -18.523438 7.847656 -18.78125 7.171875 -18.78125 C 6.398438 -18.78125 5.8125 -18.519531 5.40625 -18 C 5 -17.476562 4.796875 -16.875 4.796875 -16.1875 L 4.796875 -6.203125 C 4.796875 -5.421875 5.023438 -4.78125 5.484375 -4.28125 C 5.941406 -3.789062 6.503906 -3.546875 7.171875 -3.546875 C 7.847656 -3.546875 8.414062 -3.816406 8.875 -4.359375 C 9.332031 -4.910156 9.5625 -5.523438 9.5625 -6.203125 L 9.5625 -7.6875 C 9.5625 -7.769531 9.609375 -7.8125 9.703125 -7.8125 L 13.3125 -7.8125 C 13.394531 -7.8125 13.4375 -7.769531 13.4375 -7.6875 L 13.4375 -6.203125 C 13.4375 -4.992188 13.15625 -3.894531 12.59375 -2.90625 C 12.03125 -1.925781 11.273438 -1.144531 10.328125 -0.5625 C 9.390625 0.0195312 8.335938 0.3125 7.171875 0.3125 Z M 7.171875 0.3125 "/></g></g></g><g fill="#ffffff" fill-opacity="1"><g transform="translate(291.885298, 113.095733)"><g><path d="M 1.40625 0 C 1.320312 0 1.28125 -0.0507812 1.28125 -0.15625 L 1.3125 -22.140625 C 1.3125 -22.222656 1.351562 -22.265625 1.4375 -22.265625 L 11.71875 -22.265625 C 11.800781 -22.265625 11.84375 -22.210938 11.84375 -22.109375 L 11.84375 -18.53125 C 11.84375 -18.445312 11.800781 -18.40625 11.71875 -18.40625 L 5.15625 -18.40625 L 5.15625 -13.40625 L 11.71875 -13.40625 C 11.800781 -13.40625 11.84375 -13.363281 11.84375 -13.28125 L 11.875 -9.65625 C 11.875 -9.570312 11.832031 -9.53125 11.75 -9.53125 L 5.15625 -9.53125 L 5.15625 -3.9375 L 11.75 -3.9375 C 11.832031 -3.9375 11.875 -3.882812 11.875 -3.78125 L 11.875 -0.125 C 11.875 -0.0390625 11.832031 0 11.75 0 Z M 1.40625 0 "/></g></g></g><path stroke-linecap="butt" transform="matrix(0.75, 0, 0, 0.75, 79.223751, 83.295686)" fill="none" stroke-linejoin="miter" d="M -0.00146007 1.001585 L 304.691266 1.001585 " stroke="#ffffff" stroke-width="2" stroke-opacity="1" stroke-miterlimit="4"/></svg>