<svg xmlns="http://www.w3.org/2000/svg" xmlns:xlink="http://www.w3.org/1999/xlink" width="500" zoomAndPan="magnify" viewBox="0 0 375 374.999991" height="500" preserveAspectRatio="xMidYMid meet" version="1.0"><defs><g/><clipPath id="169bc7ce81"><path d="M 4.0625 4.0625 L 370.9375 4.0625 L 370.9375 370.9375 L 4.0625 370.9375 Z M 4.0625 4.0625 " clip-rule="nonzero"/></clipPath><clipPath id="955338b1fc"><path d="M 187.5 4.0625 C 86.191406 4.0625 4.0625 86.191406 4.0625 187.5 C 4.0625 288.808594 86.191406 370.9375 187.5 370.9375 C 288.808594 370.9375 370.9375 288.808594 370.9375 187.5 C 370.9375 86.191406 288.808594 4.0625 187.5 4.0625 Z M 187.5 4.0625 " clip-rule="nonzero"/></clipPath><clipPath id="a1f99ed807"><path d="M 0.0625 0.0625 L 366.9375 0.0625 L 366.9375 366.9375 L 0.0625 366.9375 Z M 0.0625 0.0625 " clip-rule="nonzero"/></clipPath><clipPath id="e1343a0bd9"><path d="M 183.5 0.0625 C 82.191406 0.0625 0.0625 82.191406 0.0625 183.5 C 0.0625 284.808594 82.191406 366.9375 183.5 366.9375 C 284.808594 366.9375 366.9375 284.808594 366.9375 183.5 C 366.9375 82.191406 284.808594 0.0625 183.5 0.0625 Z M 183.5 0.0625 " clip-rule="nonzero"/></clipPath><clipPath id="a288536813"><rect x="0" width="367" y="0" height="367"/></clipPath><clipPath id="3cf76ff612"><path d="M 54.738281 54.738281 L 320.238281 54.738281 L 320.238281 320.238281 L 54.738281 320.238281 Z M 54.738281 54.738281 " clip-rule="nonzero"/></clipPath><clipPath id="45b9b3c263"><path d="M 187.5 54.738281 C 114.175781 54.738281 54.738281 114.175781 54.738281 187.5 C 54.738281 260.820312 114.175781 320.261719 187.5 320.261719 C 260.820312 320.261719 320.261719 260.820312 320.261719 187.5 C 320.261719 114.175781 260.820312 54.738281 187.5 54.738281 Z M 187.5 54.738281 " clip-rule="nonzero"/></clipPath><clipPath id="60bcb918aa"><path d="M 9.375 9.375 L 365.625 9.375 L 365.625 365.625 L 9.375 365.625 Z M 9.375 9.375 " clip-rule="nonzero"/></clipPath><clipPath id="11e17ce3aa"><path d="M 187.5 9.375 C 89.125 9.375 9.375 89.125 9.375 187.5 C 9.375 285.875 89.125 365.625 187.5 365.625 C 285.875 365.625 365.625 285.875 365.625 187.5 C 365.625 89.125 285.875 9.375 187.5 9.375 Z M 187.5 9.375 " clip-rule="nonzero"/></clipPath></defs>  <g clip-path="url(#169bc7ce81)"><g clip-path="url(#955338b1fc)"><g transform="matrix(1, 0, 0, 1, 4, 4)"><g clip-path="url(#a288536813)"><g clip-path="url(#a1f99ed807)"><g clip-path="url(#e1343a0bd9)"><path fill="#127055" d="M 0.0625 0.0625 L 366.9375 0.0625 L 366.9375 366.9375 L 0.0625 366.9375 Z M 0.0625 0.0625 " fill-opacity="1" fill-rule="nonzero"/></g></g></g></g></g></g><g clip-path="url(#3cf76ff612)"><g clip-path="url(#45b9b3c263)"><path stroke-linecap="butt" transform="matrix(0.75, 0, 0, 0.75, 54.736979, 54.736974)" fill="none" stroke-linejoin="miter" d="M 177.017374 0.00174299 C 79.251742 0.00174299 0.00173699 79.251748 0.00173699 177.01738 C 0.00173699 274.777803 79.251742 354.033016 177.017374 354.033016 C 274.777797 354.033016 354.03301 274.777803 354.03301 177.01738 C 354.03301 79.251748 274.777797 0.00174299 177.017374 0.00174299 Z M 177.017374 0.00174299 " stroke="#ffffff" stroke-width="6" stroke-opacity="1" stroke-miterlimit="4"/></g></g><g fill="#ffffff" fill-opacity="1"><g transform="translate(41.310931, 264.460461)"><g><path d="M 0.625 1.15625 C 0.59375 1.09375 0.625 1.035156 0.71875 0.984375 L 18.71875 -8.796875 C 18.800781 -8.835938 18.867188 -8.816406 18.921875 -8.734375 L 20.5 -5.8125 C 20.550781 -5.726562 20.535156 -5.664062 20.453125 -5.625 L 5.515625 2.484375 L 8.453125 7.890625 C 8.503906 7.972656 8.492188 8.035156 8.421875 8.078125 L 5.453125 9.6875 C 5.359375 9.738281 5.285156 9.722656 5.234375 9.640625 Z M 0.625 1.15625 "/></g></g></g><g fill="#ffffff" fill-opacity="1"><g transform="translate(48.379774, 277.22238)"><g><path d="M 0.734375 1.09375 C 0.691406 1.03125 0.710938 0.96875 0.796875 0.90625 L 17.859375 -10.5 C 17.921875 -10.539062 17.976562 -10.53125 18.03125 -10.46875 L 23.375 -2.5 C 23.414062 -2.425781 23.394531 -2.363281 23.3125 -2.3125 L 20.53125 -0.453125 C 20.46875 -0.410156 20.414062 -0.425781 20.375 -0.5 L 16.96875 -5.578125 L 13.09375 -2.984375 L 16.5 2.09375 C 16.539062 2.164062 16.53125 2.226562 16.46875 2.28125 L 13.671875 4.1875 C 13.597656 4.238281 13.539062 4.226562 13.5 4.15625 L 10.078125 -0.953125 L 5.734375 1.953125 L 9.15625 7.0625 C 9.195312 7.132812 9.179688 7.195312 9.109375 7.25 L 6.28125 9.15625 C 6.207031 9.195312 6.148438 9.179688 6.109375 9.109375 Z M 0.734375 1.09375 "/></g></g></g><g fill="#ffffff" fill-opacity="1"><g transform="translate(57.0039, 289.867525)"><g><path d="M 0.234375 0.046875 L 18.484375 -10.09375 C 18.546875 -10.125 18.597656 -10.109375 18.640625 -10.046875 L 21.390625 -6.6875 C 21.441406 -6.632812 21.445312 -6.578125 21.40625 -6.515625 L 7.78125 9.25 C 7.707031 9.332031 7.632812 9.332031 7.5625 9.25 L 5.46875 6.6875 C 5.414062 6.625 5.425781 6.550781 5.5 6.46875 L 6.96875 4.84375 L 4.390625 1.703125 L 2.515625 2.828125 C 2.410156 2.867188 2.332031 2.859375 2.28125 2.796875 L 0.1875 0.234375 C 0.132812 0.171875 0.148438 0.109375 0.234375 0.046875 Z M 7.25 0.125 L 9.078125 2.359375 L 14.796875 -3.90625 L 15.53125 -4.75 L 14.59375 -4.140625 Z M 7.25 0.125 "/></g></g></g><g fill="#ffffff" fill-opacity="1"><g transform="translate(66.944541, 301.849885)"><g><path d="M 0.9375 0.921875 C 0.882812 0.867188 0.894531 0.804688 0.96875 0.734375 L 15.484375 -13.78125 C 15.535156 -13.832031 15.585938 -13.828125 15.640625 -13.765625 L 19.921875 -9.5 C 20.679688 -8.738281 21.195312 -7.847656 21.46875 -6.828125 C 21.75 -5.816406 21.765625 -4.8125 21.515625 -3.8125 C 21.273438 -2.8125 20.765625 -1.914062 19.984375 -1.125 C 19.460938 -0.601562 18.914062 -0.210938 18.34375 0.046875 C 17.769531 0.316406 17.234375 0.492188 16.734375 0.578125 C 16.242188 0.660156 15.835938 0.6875 15.515625 0.65625 C 15.429688 2.25 14.820312 3.617188 13.6875 4.765625 L 9.390625 9.125 C 9.316406 9.195312 9.242188 9.195312 9.171875 9.125 L 6.78125 6.75 C 6.726562 6.695312 6.722656 6.648438 6.765625 6.609375 L 11.140625 2.21875 C 11.640625 1.707031 11.894531 1.085938 11.90625 0.359375 C 11.914062 -0.367188 11.660156 -0.992188 11.140625 -1.515625 L 9.75 -2.90625 L 3.515625 3.28125 C 3.441406 3.351562 3.378906 3.363281 3.328125 3.3125 Z M 12.28125 -5.453125 L 14.09375 -3.640625 C 14.53125 -3.203125 15.078125 -2.972656 15.734375 -2.953125 C 16.398438 -2.941406 16.96875 -3.171875 17.4375 -3.640625 C 17.882812 -4.085938 18.101562 -4.640625 18.09375 -5.296875 C 18.09375 -5.960938 17.863281 -6.519531 17.40625 -6.96875 L 15.59375 -8.78125 Z M 12.28125 -5.453125 "/></g></g></g><g fill="#ffffff" fill-opacity="1"><g transform="translate(79.275522, 313.907113)"><g><path d="M 1.140625 0.921875 C 1.015625 0.816406 0.992188 0.710938 1.078125 0.609375 L 13.84375 -15.25 C 13.9375 -15.375 14.046875 -15.382812 14.171875 -15.28125 L 16.265625 -13.59375 L 12.8125 -1.28125 L 19.9375 -10.328125 C 20.03125 -10.453125 20.144531 -10.460938 20.28125 -10.359375 L 22.578125 -8.5 C 22.679688 -8.414062 22.6875 -8.3125 22.59375 -8.1875 L 9.8125 7.6875 C 9.738281 7.78125 9.660156 7.796875 9.578125 7.734375 L 7.546875 6.078125 L 10.421875 -5.734375 L 3.8125 2.78125 C 3.71875 2.90625 3.601562 2.910156 3.46875 2.796875 Z M 1.140625 0.921875 "/></g></g></g><g fill="#ffffff" fill-opacity="1"><g transform="translate(92.206532, 323.998035)"><g/></g></g><g fill="#ffffff" fill-opacity="1"><g transform="translate(97.762573, 327.810565)"><g><path d="M 7.046875 -5.75 C 6.523438 -6.070312 6.203125 -6.554688 6.078125 -7.203125 C 5.953125 -7.847656 6.050781 -8.429688 6.375 -8.953125 C 6.71875 -9.515625 7.207031 -9.878906 7.84375 -10.046875 C 8.476562 -10.210938 9.054688 -10.132812 9.578125 -9.8125 C 10.097656 -9.476562 10.414062 -8.992188 10.53125 -8.359375 C 10.65625 -7.722656 10.546875 -7.125 10.203125 -6.5625 C 9.859375 -6.007812 9.375 -5.65625 8.75 -5.5 C 8.125 -5.34375 7.554688 -5.425781 7.046875 -5.75 Z M 7.046875 -5.75 "/></g></g></g><g fill="#ffffff" fill-opacity="1"><g transform="translate(105.164239, 332.345915)"><g/></g></g><g fill="#ffffff" fill-opacity="1"><g transform="translate(111.20515, 335.82396)"><g><path d="M 1.21875 0.578125 C 1.132812 0.535156 1.113281 0.46875 1.15625 0.375 L 9.90625 -18.203125 C 9.9375 -18.265625 9.992188 -18.28125 10.078125 -18.25 L 15.265625 -15.8125 C 16.921875 -15.03125 17.992188 -13.90625 18.484375 -12.4375 C 18.984375 -10.976562 18.832031 -9.390625 18.03125 -7.671875 C 17.425781 -6.378906 16.648438 -5.378906 15.703125 -4.671875 C 14.753906 -3.972656 13.753906 -3.5625 12.703125 -3.4375 C 11.660156 -3.3125 10.660156 -3.476562 9.703125 -3.9375 L 7.65625 -4.890625 L 4.453125 1.921875 C 4.410156 2.015625 4.34375 2.035156 4.25 1.984375 Z M 9.1875 -8.171875 L 11.234375 -7.21875 C 11.816406 -6.9375 12.445312 -6.972656 13.125 -7.328125 C 13.8125 -7.691406 14.363281 -8.316406 14.78125 -9.203125 C 15.101562 -9.898438 15.179688 -10.5625 15.015625 -11.1875 C 14.847656 -11.820312 14.429688 -12.296875 13.765625 -12.609375 L 11.703125 -13.53125 Z M 9.1875 -8.171875 "/></g></g></g><g fill="#ffffff" fill-opacity="1"><g transform="translate(126.418583, 342.808023)"><g><path d="M 1.234375 0.421875 C 1.171875 0.398438 1.15625 0.34375 1.1875 0.25 L 7.953125 -19.140625 C 7.984375 -19.210938 8.035156 -19.234375 8.109375 -19.203125 L 13.8125 -17.234375 C 14.832031 -16.878906 15.6875 -16.300781 16.375 -15.5 C 17.0625 -14.707031 17.507812 -13.804688 17.71875 -12.796875 C 17.9375 -11.785156 17.863281 -10.75 17.5 -9.6875 C 17.257812 -8.988281 16.9375 -8.398438 16.53125 -7.921875 C 16.132812 -7.441406 15.726562 -7.054688 15.3125 -6.765625 C 14.894531 -6.484375 14.546875 -6.28125 14.265625 -6.15625 C 14.878906 -4.675781 14.925781 -3.175781 14.40625 -1.65625 L 12.421875 4.140625 C 12.390625 4.234375 12.320312 4.265625 12.21875 4.234375 L 9.03125 3.125 C 8.96875 3.101562 8.945312 3.0625 8.96875 3 L 11 -2.84375 C 11.226562 -3.519531 11.1875 -4.1875 10.875 -4.84375 C 10.5625 -5.507812 10.054688 -5.960938 9.359375 -6.203125 L 7.5 -6.859375 L 4.59375 1.4375 C 4.5625 1.53125 4.503906 1.5625 4.421875 1.53125 Z M 8.6875 -10.265625 L 11.109375 -9.421875 C 11.703125 -9.210938 12.296875 -9.242188 12.890625 -9.515625 C 13.492188 -9.796875 13.90625 -10.242188 14.125 -10.859375 C 14.332031 -11.460938 14.285156 -12.054688 13.984375 -12.640625 C 13.691406 -13.234375 13.242188 -13.632812 12.640625 -13.84375 L 10.21875 -14.6875 Z M 8.6875 -10.265625 "/></g></g></g><g fill="#ffffff" fill-opacity="1"><g transform="translate(142.740517, 348.268669)"><g><path d="M 0.203125 -0.109375 L 8.546875 -19.234375 C 8.578125 -19.296875 8.628906 -19.320312 8.703125 -19.3125 L 12.9375 -18.3125 C 13 -18.289062 13.035156 -18.242188 13.046875 -18.171875 L 11.78125 2.625 C 11.78125 2.726562 11.726562 2.769531 11.625 2.75 L 8.40625 1.984375 C 8.320312 1.960938 8.28125 1.898438 8.28125 1.796875 L 8.46875 -0.390625 L 4.515625 -1.328125 L 3.703125 0.703125 C 3.660156 0.804688 3.597656 0.847656 3.515625 0.828125 L 0.28125 0.0625 C 0.207031 0.0507812 0.179688 -0.00390625 0.203125 -0.109375 Z M 5.828125 -4.3125 L 8.625 -3.65625 L 9.375 -12.09375 L 9.4375 -13.203125 L 9.078125 -12.15625 Z M 5.828125 -4.3125 "/></g></g></g><g fill="#ffffff" fill-opacity="1"><g transform="translate(157.894085, 351.728151)"><g><path d="M 6.59375 1.1875 C 5.5 1.039062 4.550781 0.640625 3.75 -0.015625 C 2.945312 -0.679688 2.351562 -1.503906 1.96875 -2.484375 C 1.582031 -3.460938 1.460938 -4.515625 1.609375 -5.640625 L 2.875 -14.875 C 3.019531 -15.957031 3.40625 -16.914062 4.03125 -17.75 C 4.65625 -18.582031 5.441406 -19.207031 6.390625 -19.625 C 7.335938 -20.050781 8.359375 -20.191406 9.453125 -20.046875 C 10.535156 -19.898438 11.472656 -19.503906 12.265625 -18.859375 C 13.066406 -18.210938 13.664062 -17.398438 14.0625 -16.421875 C 14.457031 -15.453125 14.582031 -14.414062 14.4375 -13.3125 L 14.25 -11.953125 C 14.238281 -11.867188 14.191406 -11.832031 14.109375 -11.84375 L 10.796875 -12.296875 C 10.710938 -12.304688 10.675781 -12.351562 10.6875 -12.4375 L 10.875 -13.796875 C 10.957031 -14.453125 10.820312 -15.046875 10.46875 -15.578125 C 10.113281 -16.109375 9.617188 -16.414062 8.984375 -16.5 C 8.273438 -16.59375 7.695312 -16.421875 7.25 -15.984375 C 6.800781 -15.554688 6.535156 -15.023438 6.453125 -14.390625 L 5.203125 -5.15625 C 5.109375 -4.414062 5.242188 -3.789062 5.609375 -3.28125 C 5.972656 -2.769531 6.460938 -2.472656 7.078125 -2.390625 C 7.710938 -2.304688 8.273438 -2.488281 8.765625 -2.9375 C 9.253906 -3.382812 9.539062 -3.925781 9.625 -4.5625 L 9.8125 -5.921875 C 9.820312 -6.003906 9.867188 -6.039062 9.953125 -6.03125 L 13.296875 -5.578125 C 13.367188 -5.566406 13.398438 -5.519531 13.390625 -5.4375 L 13.203125 -4.078125 C 13.054688 -2.953125 12.660156 -1.96875 12.015625 -1.125 C 11.367188 -0.289062 10.570312 0.335938 9.625 0.765625 C 8.6875 1.191406 7.675781 1.332031 6.59375 1.1875 Z M 6.59375 1.1875 "/></g></g></g><g fill="#ffffff" fill-opacity="1"><g transform="translate(174.064379, 353.730158)"><g><path d="M 4.1875 0.15625 C 4.101562 0.15625 4.0625 0.101562 4.0625 0 L 4.703125 -17.015625 L 0.8125 -17.171875 C 0.71875 -17.171875 0.675781 -17.222656 0.6875 -17.328125 L 0.84375 -20.671875 C 0.84375 -20.742188 0.878906 -20.78125 0.953125 -20.78125 L 12.296875 -20.34375 C 12.398438 -20.34375 12.453125 -20.304688 12.453125 -20.234375 L 12.328125 -16.890625 C 12.316406 -16.785156 12.269531 -16.734375 12.1875 -16.734375 L 8.296875 -16.890625 L 7.6875 0.140625 C 7.6875 0.242188 7.644531 0.289062 7.5625 0.28125 Z M 4.1875 0.15625 "/></g></g></g><g fill="#ffffff" fill-opacity="1"><g transform="translate(188.548985, 354.083422)"><g><path d="M 1.34375 -0.046875 C 1.25 -0.046875 1.203125 -0.0976562 1.203125 -0.203125 L 0.515625 -20.71875 C 0.503906 -20.789062 0.539062 -20.828125 0.625 -20.828125 L 3.96875 -20.9375 C 4.050781 -20.945312 4.097656 -20.914062 4.109375 -20.84375 L 4.84375 -0.328125 C 4.84375 -0.222656 4.800781 -0.164062 4.71875 -0.15625 Z M 1.34375 -0.046875 "/></g></g></g><g fill="#ffffff" fill-opacity="1"><g transform="translate(197.411646, 353.818802)"><g><path d="M 6.6875 -0.453125 C 5.59375 -0.328125 4.570312 -0.484375 3.625 -0.921875 C 2.6875 -1.367188 1.910156 -2.019531 1.296875 -2.875 C 0.691406 -3.726562 0.328125 -4.722656 0.203125 -5.859375 L -0.828125 -15.125 C -0.953125 -16.207031 -0.8125 -17.226562 -0.40625 -18.1875 C 0 -19.144531 0.609375 -19.945312 1.421875 -20.59375 C 2.242188 -21.238281 3.203125 -21.625 4.296875 -21.75 C 5.390625 -21.863281 6.398438 -21.703125 7.328125 -21.265625 C 8.265625 -20.828125 9.039062 -20.1875 9.65625 -19.34375 C 10.269531 -18.5 10.640625 -17.523438 10.765625 -16.421875 L 10.921875 -15.0625 C 10.929688 -14.976562 10.894531 -14.929688 10.8125 -14.921875 L 7.484375 -14.5625 C 7.398438 -14.550781 7.351562 -14.585938 7.34375 -14.671875 L 7.1875 -16.03125 C 7.113281 -16.6875 6.835938 -17.226562 6.359375 -17.65625 C 5.890625 -18.082031 5.335938 -18.257812 4.703125 -18.1875 C 3.992188 -18.101562 3.472656 -17.796875 3.140625 -17.265625 C 2.816406 -16.742188 2.691406 -16.164062 2.765625 -15.53125 L 3.8125 -6.265625 C 3.894531 -5.523438 4.171875 -4.953125 4.640625 -4.546875 C 5.117188 -4.140625 5.664062 -3.972656 6.28125 -4.046875 C 6.914062 -4.117188 7.414062 -4.429688 7.78125 -4.984375 C 8.144531 -5.535156 8.296875 -6.128906 8.234375 -6.765625 L 8.078125 -8.125 C 8.066406 -8.207031 8.101562 -8.253906 8.1875 -8.265625 L 11.546875 -8.640625 C 11.617188 -8.640625 11.660156 -8.597656 11.671875 -8.515625 L 11.828125 -7.15625 C 11.953125 -6.019531 11.800781 -4.96875 11.375 -4 C 10.957031 -3.03125 10.34375 -2.222656 9.53125 -1.578125 C 8.726562 -0.941406 7.78125 -0.566406 6.6875 -0.453125 Z M 6.6875 -0.453125 "/></g></g></g><g fill="#ffffff" fill-opacity="1"><g transform="translate(213.603753, 351.843583)"><g><path d="M 1.28125 -0.265625 C 1.207031 -0.253906 1.160156 -0.300781 1.140625 -0.40625 L -3.109375 -20.484375 C -3.128906 -20.554688 -3.097656 -20.601562 -3.015625 -20.625 L 6.375 -22.625 C 6.457031 -22.632812 6.507812 -22.59375 6.53125 -22.5 L 7.234375 -19.234375 C 7.242188 -19.148438 7.207031 -19.101562 7.125 -19.09375 L 1.125 -17.8125 L 2.09375 -13.25 L 8.09375 -14.53125 C 8.175781 -14.539062 8.226562 -14.507812 8.25 -14.4375 L 8.96875 -11.140625 C 8.976562 -11.066406 8.945312 -11.019531 8.875 -11 L 2.84375 -9.71875 L 3.9375 -4.59375 L 9.96875 -5.875 C 10.039062 -5.894531 10.085938 -5.859375 10.109375 -5.765625 L 10.8125 -2.4375 C 10.832031 -2.351562 10.804688 -2.300781 10.734375 -2.28125 Z M 1.28125 -0.265625 "/></g></g></g><g fill="#ffffff" fill-opacity="1"><g transform="translate(228.275333, 348.495796)"><g/></g></g><g fill="#ffffff" fill-opacity="1"><g transform="translate(234.747821, 346.619846)"><g><path d="M 0.015625 -9.09375 C -0.566406 -8.894531 -1.144531 -8.945312 -1.71875 -9.25 C -2.289062 -9.5625 -2.675781 -10.007812 -2.875 -10.59375 C -3.082031 -11.21875 -3.050781 -11.828125 -2.78125 -12.421875 C -2.519531 -13.023438 -2.097656 -13.425781 -1.515625 -13.625 C -0.921875 -13.820312 -0.335938 -13.765625 0.234375 -13.453125 C 0.804688 -13.140625 1.195312 -12.671875 1.40625 -12.046875 C 1.613281 -11.429688 1.578125 -10.832031 1.296875 -10.25 C 1.015625 -9.664062 0.585938 -9.28125 0.015625 -9.09375 Z M 0.015625 -9.09375 "/></g></g></g><g fill="#ffffff" fill-opacity="1"><g transform="translate(242.94826, 343.772845)"><g/></g></g><g fill="#ffffff" fill-opacity="1"><g transform="translate(249.458932, 341.306132)"><g><path d="M 1.21875 -0.578125 C 1.132812 -0.535156 1.070312 -0.5625 1.03125 -0.65625 L -7.765625 -19.203125 C -7.796875 -19.273438 -7.773438 -19.332031 -7.703125 -19.375 L -2.515625 -21.84375 C -0.859375 -22.625 0.6875 -22.738281 2.125 -22.1875 C 3.570312 -21.632812 4.703125 -20.5 5.515625 -18.78125 C 6.128906 -17.5 6.40625 -16.269531 6.34375 -15.09375 C 6.28125 -13.925781 5.960938 -12.894531 5.390625 -12 C 4.828125 -11.113281 4.066406 -10.445312 3.109375 -10 L 1.0625 -9.015625 L 4.3125 -2.21875 C 4.351562 -2.125 4.328125 -2.054688 4.234375 -2.015625 Z M -0.484375 -12.28125 L 1.5625 -13.265625 C 2.144531 -13.535156 2.515625 -14.046875 2.671875 -14.796875 C 2.828125 -15.546875 2.691406 -16.363281 2.265625 -17.25 C 1.941406 -17.945312 1.484375 -18.429688 0.890625 -18.703125 C 0.296875 -18.972656 -0.332031 -18.953125 -1 -18.640625 L -3.03125 -17.625 Z M -0.484375 -12.28125 "/></g></g></g><g fill="#ffffff" fill-opacity="1"><g transform="translate(264.227416, 334.093608)"><g><path d="M 1.125 -0.671875 C 1.0625 -0.640625 1.003906 -0.671875 0.953125 -0.765625 L -9.640625 -18.34375 C -9.671875 -18.40625 -9.648438 -18.457031 -9.578125 -18.5 L -1.375 -23.453125 C -1.300781 -23.503906 -1.242188 -23.488281 -1.203125 -23.40625 L 0.53125 -20.546875 C 0.570312 -20.472656 0.554688 -20.410156 0.484375 -20.359375 L -4.75 -17.203125 L -2.34375 -13.21875 L 2.890625 -16.375 C 2.960938 -16.425781 3.019531 -16.414062 3.0625 -16.34375 L 4.84375 -13.46875 C 4.882812 -13.394531 4.867188 -13.335938 4.796875 -13.296875 L -0.46875 -10.109375 L 2.234375 -5.625 L 7.5 -8.8125 C 7.570312 -8.851562 7.628906 -8.835938 7.671875 -8.765625 L 9.4375 -5.84375 C 9.476562 -5.769531 9.460938 -5.710938 9.390625 -5.671875 Z M 1.125 -0.671875 "/></g></g></g><g fill="#ffffff" fill-opacity="1"><g transform="translate(277.327856, 326.083355)"><g><path d="M 1.046875 -0.78125 C 0.992188 -0.738281 0.9375 -0.757812 0.875 -0.84375 L -11.40625 -17.296875 C -11.445312 -17.359375 -11.4375 -17.414062 -11.375 -17.46875 L -6.546875 -21.078125 C -5.679688 -21.734375 -4.726562 -22.117188 -3.6875 -22.234375 C -2.644531 -22.359375 -1.644531 -22.226562 -0.6875 -21.84375 C 0.269531 -21.457031 1.082031 -20.816406 1.75 -19.921875 C 2.195312 -19.335938 2.507812 -18.742188 2.6875 -18.140625 C 2.863281 -17.535156 2.957031 -16.976562 2.96875 -16.46875 C 2.976562 -15.96875 2.941406 -15.566406 2.859375 -15.265625 C 4.441406 -14.953125 5.71875 -14.148438 6.6875 -12.859375 L 10.375 -7.984375 C 10.4375 -7.898438 10.425781 -7.828125 10.34375 -7.765625 L 7.65625 -5.734375 C 7.59375 -5.691406 7.539062 -5.695312 7.5 -5.75 L 3.796875 -10.703125 C 3.359375 -11.273438 2.78125 -11.617188 2.0625 -11.734375 C 1.34375 -11.847656 0.6875 -11.6875 0.09375 -11.25 L -1.484375 -10.0625 L 3.75 -3.015625 C 3.8125 -2.929688 3.8125 -2.863281 3.75 -2.8125 Z M -3.640625 -12.9375 L -1.59375 -14.46875 C -1.09375 -14.84375 -0.785156 -15.359375 -0.671875 -16.015625 C -0.566406 -16.671875 -0.710938 -17.257812 -1.109375 -17.78125 C -1.484375 -18.289062 -1.992188 -18.585938 -2.640625 -18.671875 C -3.296875 -18.765625 -3.882812 -18.613281 -4.40625 -18.21875 L -6.453125 -16.6875 Z M -3.640625 -12.9375 "/></g></g></g><g fill="#ffffff" fill-opacity="1"><g transform="translate(290.980778, 315.611369)"><g><path d="M 0.984375 -0.90625 C 0.921875 -0.84375 0.851562 -0.847656 0.78125 -0.921875 L -13.09375 -16.0625 C -13.132812 -16.113281 -13.125 -16.171875 -13.0625 -16.234375 L -6.03125 -22.703125 C -5.957031 -22.773438 -5.898438 -22.785156 -5.859375 -22.734375 L -3.5625 -20.25 C -3.507812 -20.1875 -3.515625 -20.125 -3.578125 -20.0625 L -8.078125 -15.921875 L -4.9375 -12.515625 L -0.4375 -16.65625 C -0.375 -16.71875 -0.3125 -16.710938 -0.25 -16.640625 L 2.078125 -14.171875 C 2.128906 -14.109375 2.113281 -14.039062 2.03125 -13.96875 L -2.46875 -9.828125 L 3.453125 -3.390625 C 3.523438 -3.316406 3.523438 -3.242188 3.453125 -3.171875 Z M 0.984375 -0.90625 "/></g></g></g><g fill="#ffffff" fill-opacity="1"><g transform="translate(302.208596, 305.125863)"><g><path d="M 4.6875 -4.8125 C 3.976562 -4.007812 3.125 -3.457031 2.125 -3.15625 C 1.132812 -2.863281 0.125 -2.816406 -0.90625 -3.015625 C -1.945312 -3.222656 -2.875 -3.691406 -3.6875 -4.421875 L -10.75 -10.75 C -11.570312 -11.476562 -12.140625 -12.335938 -12.453125 -13.328125 C -12.765625 -14.316406 -12.820312 -15.328125 -12.625 -16.359375 C -12.4375 -17.390625 -11.992188 -18.296875 -11.296875 -19.078125 C -10.578125 -19.890625 -9.722656 -20.441406 -8.734375 -20.734375 C -7.753906 -21.023438 -6.753906 -21.066406 -5.734375 -20.859375 C -4.710938 -20.660156 -3.789062 -20.195312 -2.96875 -19.46875 L 4.125 -13.1875 C 4.9375 -12.457031 5.503906 -11.59375 5.828125 -10.59375 C 6.160156 -9.59375 6.234375 -8.582031 6.046875 -7.5625 C 5.859375 -6.539062 5.40625 -5.625 4.6875 -4.8125 Z M 2 -7.21875 C 2.40625 -7.664062 2.570312 -8.21875 2.5 -8.875 C 2.4375 -9.539062 2.175781 -10.078125 1.71875 -10.484375 L -5.375 -16.78125 C -5.863281 -17.21875 -6.421875 -17.429688 -7.046875 -17.421875 C -7.671875 -17.421875 -8.195312 -17.179688 -8.625 -16.703125 C -9.03125 -16.242188 -9.210938 -15.695312 -9.171875 -15.0625 C -9.128906 -14.4375 -8.851562 -13.898438 -8.34375 -13.453125 L -1.265625 -7.140625 C -0.773438 -6.703125 -0.210938 -6.488281 0.421875 -6.5 C 1.066406 -6.519531 1.59375 -6.757812 2 -7.21875 Z M 2 -7.21875 "/></g></g></g><g fill="#ffffff" fill-opacity="1"><g transform="translate(313.092645, 292.733151)"><g><path d="M 0.765625 -1.0625 C 0.722656 -1 0.660156 -1 0.578125 -1.0625 L -16.046875 -13.109375 C -16.109375 -13.148438 -16.117188 -13.203125 -16.078125 -13.265625 L -12.546875 -18.171875 C -11.910156 -19.046875 -11.113281 -19.695312 -10.15625 -20.125 C -9.207031 -20.550781 -8.210938 -20.722656 -7.171875 -20.640625 C -6.140625 -20.554688 -5.171875 -20.191406 -4.265625 -19.546875 C -3.671875 -19.109375 -3.195312 -18.628906 -2.84375 -18.109375 C -2.5 -17.585938 -2.25 -17.085938 -2.09375 -16.609375 C -1.9375 -16.140625 -1.847656 -15.742188 -1.828125 -15.421875 C -0.234375 -15.585938 1.21875 -15.203125 2.53125 -14.265625 L 7.53125 -10.71875 C 7.613281 -10.65625 7.625 -10.582031 7.5625 -10.5 L 5.59375 -7.765625 C 5.550781 -7.703125 5.503906 -7.691406 5.453125 -7.734375 L 0.4375 -11.34375 C -0.144531 -11.757812 -0.800781 -11.910156 -1.53125 -11.796875 C -2.257812 -11.691406 -2.835938 -11.34375 -3.265625 -10.75 L -4.421875 -9.15625 L 2.6875 -4 C 2.769531 -3.9375 2.785156 -3.867188 2.734375 -3.796875 Z M -7.34375 -11.265625 L -5.84375 -13.34375 C -5.476562 -13.84375 -5.335938 -14.421875 -5.421875 -15.078125 C -5.515625 -15.734375 -5.828125 -16.253906 -6.359375 -16.640625 C -6.878906 -17.015625 -7.460938 -17.144531 -8.109375 -17.03125 C -8.753906 -16.914062 -9.265625 -16.597656 -9.640625 -16.078125 L -11.140625 -14 Z M -7.34375 -11.265625 "/></g></g></g><g fill="#ffffff" fill-opacity="1"><g transform="translate(323.115302, 278.612139)"><g><path d="M 0.640625 -1.140625 C 0.609375 -1.078125 0.546875 -1.070312 0.453125 -1.125 L -17.421875 -11.234375 C -17.484375 -11.265625 -17.492188 -11.316406 -17.453125 -11.390625 L -15.671875 -14.5625 C -15.628906 -14.632812 -15.5625 -14.679688 -15.46875 -14.703125 L -10.703125 -15.140625 L -12.796875 -19.4375 C -12.828125 -19.53125 -12.828125 -19.609375 -12.796875 -19.671875 L -10.984375 -22.890625 C -10.953125 -22.953125 -10.90625 -22.96875 -10.84375 -22.9375 L 7.078125 -12.921875 C 7.171875 -12.867188 7.195312 -12.804688 7.15625 -12.734375 L 5.5 -9.796875 C 5.46875 -9.734375 5.40625 -9.726562 5.3125 -9.78125 L -7.984375 -17.21875 L -5.5625 -12.25 L -11.046875 -11.765625 L 2.21875 -4.28125 C 2.3125 -4.226562 2.335938 -4.164062 2.296875 -4.09375 Z M 0.640625 -1.140625 "/></g></g></g><g clip-path="url(#60bcb918aa)"><g clip-path="url(#11e17ce3aa)"><path stroke-linecap="butt" transform="matrix(0.75, 0, 0, 0.75, 9.374346, 9.374341)" fill="none" stroke-linejoin="miter" d="M 237.500903 0.000878581 C 106.33422 0.000878581 0.000872581 106.334226 0.000872581 237.500909 C 0.000872581 368.667593 106.33422 475.00094 237.500903 475.00094 C 368.667587 475.00094 475.000934 368.667593 475.000934 237.500909 C 475.000934 106.334226 368.667587 0.000878581 237.500903 0.000878581 Z M 237.500903 0.000878581 " stroke="#ffffff" stroke-width="6" stroke-opacity="1" stroke-miterlimit="4"/></g></g><g fill="#ffffff" fill-opacity="1"><g transform="translate(66.979255, 201.054923)"><g><path d="M 61.03125 -47.25 C 62.820312 -47.625 64.363281 -47.296875 65.65625 -46.265625 C 66.957031 -45.242188 67.84375 -43.628906 68.3125 -41.421875 C 68.425781 -40.867188 68.507812 -40.285156 68.5625 -39.671875 C 68.613281 -39.066406 68.617188 -38.546875 68.578125 -38.109375 C 67.054688 -38.160156 65.414062 -38.03125 63.65625 -37.71875 C 63.894531 -34.601562 63.46875 -31.179688 62.375 -27.453125 C 61.28125 -23.722656 59.757812 -20.113281 57.8125 -16.625 C 55.863281 -13.144531 53.601562 -9.976562 51.03125 -7.125 C 48.457031 -4.28125 45.757812 -2.164062 42.9375 -0.78125 C 33.632812 0.945312 26.375 -0.0351562 21.15625 -3.734375 C 15.9375 -7.441406 12.304688 -14.175781 10.265625 -23.9375 C 8.765625 -31.050781 8.625 -38.21875 9.84375 -45.4375 C 11.070312 -52.664062 13.316406 -59.328125 16.578125 -65.421875 C 19.847656 -71.523438 23.972656 -76.742188 28.953125 -81.078125 C 33.929688 -85.410156 39.460938 -88.21875 45.546875 -89.5 C 50.316406 -90.5 54.242188 -90.273438 57.328125 -88.828125 C 60.410156 -87.378906 62.335938 -84.820312 63.109375 -81.15625 C 63.617188 -78.726562 63.519531 -76.359375 62.8125 -74.046875 C 62.101562 -71.734375 60.6875 -69.09375 58.5625 -66.125 C 56.875 -66.269531 55.316406 -66.828125 53.890625 -67.796875 C 52.460938 -68.765625 51.445312 -70.019531 50.84375 -71.5625 C 52.820312 -73.769531 54.140625 -75.703125 54.796875 -77.359375 C 55.460938 -79.015625 55.585938 -80.847656 55.171875 -82.859375 C 54.503906 -86.035156 52.269531 -87.222656 48.46875 -86.421875 C 45.351562 -85.773438 42.253906 -83.914062 39.171875 -80.84375 C 36.097656 -77.78125 33.222656 -73.691406 30.546875 -68.578125 C 26.722656 -61.347656 24.316406 -54.21875 23.328125 -47.1875 C 22.347656 -40.164062 22.71875 -32.578125 24.4375 -24.421875 C 25.070312 -21.378906 25.960938 -18.675781 27.109375 -16.3125 C 28.265625 -13.957031 29.554688 -11.953125 30.984375 -10.296875 C 32.421875 -8.640625 33.960938 -7.40625 35.609375 -6.59375 C 37.253906 -5.789062 38.921875 -5.5 40.609375 -5.71875 C 42.722656 -6.664062 44.695312 -8.25 46.53125 -10.46875 C 48.375 -12.695312 49.960938 -15.195312 51.296875 -17.96875 C 52.628906 -20.738281 53.644531 -23.625 54.34375 -26.625 C 55.050781 -29.625 55.289062 -32.398438 55.0625 -34.953125 C 53.207031 -34.140625 51.4375 -33.351562 49.75 -32.59375 C 48.070312 -31.84375 46.4375 -31.300781 44.84375 -30.96875 C 42.769531 -30.53125 40.84375 -30.664062 39.0625 -31.375 C 37.289062 -32.09375 35.941406 -33.289062 35.015625 -34.96875 C 36.117188 -35.925781 37.78125 -37.03125 40 -38.28125 C 42.226562 -39.539062 44.617188 -40.785156 47.171875 -42.015625 C 49.722656 -43.242188 52.253906 -44.335938 54.765625 -45.296875 C 57.285156 -46.253906 59.375 -46.90625 61.03125 -47.25 Z M 61.03125 -47.25 "/></g></g></g><g fill="#ffffff" fill-opacity="1"><g transform="translate(128.597385, 188.118085)"><g><path d="M 37.0625 -51.53125 C 37.75 -51.675781 38.585938 -51.726562 39.578125 -51.6875 C 40.566406 -51.644531 41.476562 -51.507812 42.3125 -51.28125 C 43.144531 -51.0625 43.863281 -50.796875 44.46875 -50.484375 C 45.082031 -50.179688 45.425781 -49.859375 45.5 -49.515625 C 44.71875 -46.316406 44.046875 -43.125 43.484375 -39.9375 C 42.929688 -36.757812 42.519531 -33.734375 42.25 -30.859375 C 41.988281 -27.984375 41.878906 -25.320312 41.921875 -22.875 C 41.960938 -20.425781 42.164062 -18.34375 42.53125 -16.625 C 42.9375 -14.6875 43.484375 -13.117188 44.171875 -11.921875 C 44.867188 -10.734375 45.757812 -9.960938 46.84375 -9.609375 C 46.113281 -8.878906 45.128906 -8.203125 43.890625 -7.578125 C 42.648438 -6.960938 41.515625 -6.546875 40.484375 -6.328125 C 36.742188 -5.546875 34.335938 -7.710938 33.265625 -12.828125 C 32.429688 -16.773438 32.609375 -22.453125 33.796875 -29.859375 C 33.078125 -26.378906 32.113281 -23.046875 30.90625 -19.859375 C 29.707031 -16.679688 28.398438 -13.820312 26.984375 -11.28125 C 25.566406 -8.75 24.046875 -6.609375 22.421875 -4.859375 C 20.804688 -3.117188 19.234375 -1.941406 17.703125 -1.328125 C 15.109375 -0.929688 12.769531 -1.722656 10.6875 -3.703125 C 8.613281 -5.691406 7.203125 -8.488281 6.453125 -12.09375 C 5.640625 -15.96875 5.613281 -20.222656 6.375 -24.859375 C 7.132812 -29.492188 8.425781 -33.910156 10.25 -38.109375 C 12.070312 -42.316406 14.242188 -45.96875 16.765625 -49.0625 C 19.285156 -52.164062 21.957031 -54.082031 24.78125 -54.8125 C 25.507812 -54.75 26.367188 -54.5 27.359375 -54.0625 C 28.359375 -53.625 29.34375 -53.070312 30.3125 -52.40625 C 31.28125 -51.738281 32.132812 -51.03125 32.875 -50.28125 C 33.613281 -49.53125 34.082031 -48.847656 34.28125 -48.234375 C 31.59375 -47.242188 29.019531 -45.300781 26.5625 -42.40625 C 24.101562 -39.507812 22.019531 -36.203125 20.3125 -32.484375 C 18.601562 -28.765625 17.367188 -24.910156 16.609375 -20.921875 C 15.859375 -16.941406 15.820312 -13.363281 16.5 -10.1875 C 16.769531 -8.875 17.425781 -8.140625 18.46875 -7.984375 C 20.394531 -8.828125 22.351562 -11.03125 24.34375 -14.59375 C 26.332031 -18.15625 28.535156 -23.472656 30.953125 -30.546875 C 31.390625 -31.929688 31.878906 -33.476562 32.421875 -35.1875 C 32.960938 -36.894531 33.503906 -38.671875 34.046875 -40.515625 C 34.597656 -42.359375 35.128906 -44.21875 35.640625 -46.09375 C 36.160156 -47.976562 36.632812 -49.789062 37.0625 -51.53125 Z M 37.0625 -51.53125 "/></g></g></g><g fill="#ffffff" fill-opacity="1"><g transform="translate(171.543319, 179.101508)"><g><path d="M 63.328125 -46.5625 C 62.242188 -46.257812 61.046875 -45.265625 59.734375 -43.578125 C 58.429688 -41.890625 57.082031 -39.800781 55.6875 -37.3125 C 54.300781 -34.820312 52.890625 -32.085938 51.453125 -29.109375 C 50.015625 -26.128906 48.644531 -23.179688 47.34375 -20.265625 C 46.050781 -17.359375 44.835938 -14.632812 43.703125 -12.09375 C 42.578125 -9.550781 41.597656 -7.503906 40.765625 -5.953125 C 39.117188 -6.253906 37.613281 -6.894531 36.25 -7.875 C 34.894531 -8.863281 33.785156 -10.203125 32.921875 -11.890625 C 32.816406 -14.109375 32.828125 -16.441406 32.953125 -18.890625 C 33.085938 -21.335938 33.394531 -23.910156 33.875 -26.609375 C 34.363281 -29.304688 35.066406 -32.175781 35.984375 -35.21875 C 36.898438 -38.257812 38.101562 -41.53125 39.59375 -45.03125 C 38.582031 -44.738281 37.328125 -43.695312 35.828125 -41.90625 C 34.328125 -40.113281 32.773438 -37.875 31.171875 -35.1875 C 29.578125 -32.5 27.960938 -29.519531 26.328125 -26.25 C 24.703125 -22.988281 23.203125 -19.8125 21.828125 -16.71875 C 20.015625 -12.570312 18.546875 -8.972656 17.421875 -5.921875 C 16.304688 -2.878906 15.414062 -1.035156 14.75 -0.390625 C 12.675781 -1.328125 11.132812 -2.484375 10.125 -3.859375 C 9.113281 -5.234375 8.238281 -6.820312 7.5 -8.625 C 7.21875 -10.289062 7.039062 -12.414062 6.96875 -15 C 6.90625 -17.582031 7.015625 -20.273438 7.296875 -23.078125 C 7.816406 -28.460938 8.816406 -33.910156 10.296875 -39.421875 C 11.773438 -44.929688 13.257812 -50.003906 14.75 -54.640625 C 16.769531 -54.628906 18.648438 -54.335938 20.390625 -53.765625 C 22.128906 -53.203125 24.050781 -52.234375 26.15625 -50.859375 C 25.90625 -48.578125 25.300781 -46.085938 24.34375 -43.390625 C 23.394531 -40.703125 22.398438 -37.878906 21.359375 -34.921875 C 20.328125 -31.960938 19.441406 -28.957031 18.703125 -25.90625 C 17.972656 -22.863281 17.695312 -19.882812 17.875 -16.96875 C 19.226562 -20.144531 20.859375 -23.804688 22.765625 -27.953125 C 24.679688 -32.109375 26.703125 -36.070312 28.828125 -39.84375 C 30.960938 -43.613281 33.179688 -46.894531 35.484375 -49.6875 C 37.796875 -52.488281 40.054688 -54.117188 42.265625 -54.578125 C 43.085938 -54.753906 44.007812 -54.804688 45.03125 -54.734375 C 46.0625 -54.660156 47.035156 -54.503906 47.953125 -54.265625 C 48.878906 -54.023438 49.660156 -53.769531 50.296875 -53.5 C 50.929688 -53.238281 51.296875 -53.007812 51.390625 -52.8125 C 51.335938 -51.363281 50.921875 -49.3125 50.140625 -46.65625 C 49.367188 -44 48.535156 -41.203125 47.640625 -38.265625 C 46.742188 -35.335938 45.925781 -32.515625 45.1875 -29.796875 C 44.457031 -27.078125 44.140625 -24.972656 44.234375 -23.484375 C 46.648438 -28.816406 48.953125 -33.679688 51.140625 -38.078125 C 53.328125 -42.484375 55.445312 -46.304688 57.5 -49.546875 C 59.5625 -52.796875 61.5625 -55.378906 63.5 -57.296875 C 65.445312 -59.222656 67.425781 -60.398438 69.4375 -60.828125 C 70.820312 -61.117188 72.191406 -61.023438 73.546875 -60.546875 C 74.910156 -60.078125 75.984375 -59.203125 76.765625 -57.921875 C 76.578125 -55.710938 76.078125 -53.007812 75.265625 -49.8125 C 74.453125 -46.613281 73.660156 -43.25 72.890625 -39.71875 C 72.117188 -36.195312 71.488281 -32.757812 71 -29.40625 C 70.507812 -26.0625 70.523438 -23.144531 71.046875 -20.65625 C 71.347656 -19.195312 71.75 -18.285156 72.25 -17.921875 C 72.757812 -17.566406 73.398438 -17.46875 74.171875 -17.625 C 74.992188 -17.800781 75.738281 -18.117188 76.40625 -18.578125 C 77.070312 -19.046875 77.570312 -19.316406 77.90625 -19.390625 C 78.394531 -19.203125 78.710938 -18.90625 78.859375 -18.5 C 79.015625 -18.09375 79.128906 -17.71875 79.203125 -17.375 C 78.054688 -15.976562 76.832031 -14.765625 75.53125 -13.734375 C 74.226562 -12.703125 72.679688 -12 70.890625 -11.625 C 69.222656 -11.269531 67.796875 -11.257812 66.609375 -11.59375 C 65.429688 -11.925781 64.390625 -12.503906 63.484375 -13.328125 C 62.585938 -14.148438 61.867188 -15.15625 61.328125 -16.34375 C 60.796875 -17.53125 60.378906 -18.851562 60.078125 -20.3125 C 59.585938 -22.65625 59.40625 -25.050781 59.53125 -27.5 C 59.664062 -29.945312 59.941406 -32.316406 60.359375 -34.609375 C 60.785156 -36.898438 61.289062 -39.0625 61.875 -41.09375 C 62.457031 -43.132812 62.941406 -44.957031 63.328125 -46.5625 Z M 63.328125 -46.5625 "/></g></g></g><g fill="#ffffff" fill-opacity="1"><g transform="translate(245.090908, 163.660058)"><g><path d="M 38.1875 -52.859375 C 38.8125 -48.515625 38.820312 -44.671875 38.21875 -41.328125 C 37.613281 -37.984375 36.398438 -34.910156 34.578125 -32.109375 C 32.753906 -29.316406 30.375 -26.632812 27.4375 -24.0625 C 24.507812 -21.488281 21.015625 -18.878906 16.953125 -16.234375 C 17.035156 -15.816406 17.109375 -15.378906 17.171875 -14.921875 C 17.234375 -14.472656 17.316406 -14.003906 17.421875 -13.515625 C 17.609375 -12.617188 17.867188 -11.695312 18.203125 -10.75 C 18.546875 -9.8125 18.976562 -8.960938 19.5 -8.203125 C 20.03125 -7.441406 20.660156 -6.867188 21.390625 -6.484375 C 22.117188 -6.097656 22.96875 -6.007812 23.9375 -6.21875 C 25.800781 -6.601562 27.546875 -7.398438 29.171875 -8.609375 C 30.796875 -9.816406 32.289062 -11.195312 33.65625 -12.75 C 35.019531 -14.300781 36.265625 -15.9375 37.390625 -17.65625 C 38.515625 -19.375 39.507812 -20.929688 40.375 -22.328125 C 41.1875 -21.859375 41.890625 -21.394531 42.484375 -20.9375 C 40.253906 -16.144531 37.570312 -11.992188 34.4375 -8.484375 C 31.3125 -4.972656 28.171875 -2.488281 25.015625 -1.03125 C 20.128906 -0.582031 16.046875 -1.546875 12.765625 -3.921875 C 9.484375 -6.296875 7.40625 -9.554688 6.53125 -13.703125 C 5.9375 -16.554688 5.726562 -19.53125 5.90625 -22.625 C 6.09375 -25.726562 6.601562 -28.796875 7.4375 -31.828125 C 8.28125 -34.859375 9.398438 -37.785156 10.796875 -40.609375 C 12.203125 -43.429688 13.800781 -45.96875 15.59375 -48.21875 C 17.394531 -50.476562 19.34375 -52.367188 21.4375 -53.890625 C 23.539062 -55.410156 25.738281 -56.410156 28.03125 -56.890625 C 31.289062 -57.148438 34.675781 -55.804688 38.1875 -52.859375 Z M 31.75 -47.9375 C 29.925781 -47.257812 28.144531 -46.085938 26.40625 -44.421875 C 24.664062 -42.765625 23.128906 -40.707031 21.796875 -38.25 C 20.472656 -35.800781 19.375 -33.046875 18.5 -29.984375 C 17.632812 -26.921875 17.125 -23.710938 16.96875 -20.359375 C 21.90625 -24.285156 25.78125 -28.65625 28.59375 -33.46875 C 31.414062 -38.28125 32.46875 -43.101562 31.75 -47.9375 Z M 31.75 -47.9375 "/></g></g></g><g fill="#ffffff" fill-opacity="1"><g transform="translate(107.343232, 289.907084)"><g><path d="M 69.390625 -72.953125 C 70.179688 -69.140625 69.988281 -65.300781 68.8125 -61.4375 C 67.644531 -57.582031 65.722656 -54.019531 63.046875 -50.75 C 60.367188 -47.488281 57.03125 -44.644531 53.03125 -42.21875 C 49.03125 -39.789062 44.609375 -38.070312 39.765625 -37.0625 C 38.046875 -36.695312 36.632812 -36.632812 35.53125 -36.875 C 34.4375 -37.113281 33.128906 -37.757812 31.609375 -38.8125 C 29.734375 -30.539062 28.367188 -23.007812 27.515625 -16.21875 C 26.660156 -9.4375 26.238281 -2.941406 26.25 3.265625 C 23.476562 3.191406 21.101562 2.550781 19.125 1.34375 C 17.144531 0.132812 15.210938 -1.492188 13.328125 -3.546875 C 13.753906 -5.003906 14.222656 -6.90625 14.734375 -9.25 C 15.253906 -11.601562 15.875 -14.5 16.59375 -17.9375 C 17.320312 -21.375 18.140625 -25.484375 19.046875 -30.265625 C 19.953125 -35.046875 21.035156 -40.632812 22.296875 -47.03125 C 22.835938 -49.957031 23.3125 -52.507812 23.71875 -54.6875 C 24.125 -56.875 24.453125 -58.914062 24.703125 -60.8125 C 24.960938 -62.707031 25.164062 -64.570312 25.3125 -66.40625 C 25.46875 -68.25 25.601562 -70.257812 25.71875 -72.4375 C 22.695312 -70.726562 19.960938 -68.890625 17.515625 -66.921875 C 15.078125 -64.960938 13.117188 -63.039062 11.640625 -61.15625 C 10.929688 -61.4375 10.160156 -61.921875 9.328125 -62.609375 C 8.492188 -63.296875 7.695312 -64.082031 6.9375 -64.96875 C 6.175781 -65.863281 5.472656 -66.785156 4.828125 -67.734375 C 4.191406 -68.691406 3.757812 -69.570312 3.53125 -70.375 C 5.238281 -72.1875 7.457031 -73.988281 10.1875 -75.78125 C 12.925781 -77.582031 15.894531 -79.269531 19.09375 -80.84375 C 22.300781 -82.414062 25.664062 -83.828125 29.1875 -85.078125 C 32.71875 -86.328125 36.144531 -87.300781 39.46875 -88 C 43.40625 -88.820312 47.070312 -89.066406 50.46875 -88.734375 C 53.863281 -88.398438 56.851562 -87.566406 59.4375 -86.234375 C 62.03125 -84.910156 64.175781 -83.125 65.875 -80.875 C 67.570312 -78.632812 68.742188 -75.992188 69.390625 -72.953125 Z M 48.3125 -81.53125 C 45.675781 -80.976562 43.019531 -80.195312 40.34375 -79.1875 L 41.984375 -77.59375 C 41.484375 -76.550781 40.898438 -75.019531 40.234375 -73 C 39.566406 -70.976562 38.875 -68.578125 38.15625 -65.796875 C 37.445312 -63.015625 36.675781 -59.910156 35.84375 -56.484375 C 35.007812 -53.054688 34.128906 -49.441406 33.203125 -45.640625 C 38.585938 -46.765625 43.390625 -48.296875 47.609375 -50.234375 C 51.828125 -52.171875 55.328125 -54.351562 58.109375 -56.78125 C 60.890625 -59.207031 62.910156 -61.78125 64.171875 -64.5 C 65.441406 -67.21875 65.796875 -69.921875 65.234375 -72.609375 C 64.472656 -76.210938 62.65625 -78.847656 59.78125 -80.515625 C 56.90625 -82.191406 53.082031 -82.53125 48.3125 -81.53125 Z M 48.3125 -81.53125 "/></g></g></g><g fill="#ffffff" fill-opacity="1"><g transform="translate(168.131482, 277.14448)"><g><path d="M 8.5625 -8.734375 C 7.914062 -11.773438 7.742188 -16.191406 8.046875 -21.984375 C 8.347656 -27.785156 9.046875 -34.628906 10.140625 -42.515625 C 11.984375 -55.117188 13.96875 -65.703125 16.09375 -74.265625 C 18.226562 -82.835938 20.632812 -89.679688 23.3125 -94.796875 C 24.164062 -94.828125 25.253906 -94.691406 26.578125 -94.390625 C 27.910156 -94.097656 29.234375 -93.742188 30.546875 -93.328125 C 31.859375 -92.921875 33.054688 -92.46875 34.140625 -91.96875 C 35.222656 -91.476562 35.945312 -91.050781 36.3125 -90.6875 C 32.238281 -83.1875 28.929688 -75.34375 26.390625 -67.15625 C 23.859375 -58.976562 21.894531 -49.800781 20.5 -39.625 C 19.3125 -30.84375 18.640625 -23.023438 18.484375 -16.171875 C 18.328125 -9.316406 18.707031 -3.710938 19.625 0.640625 C 19.875 1.816406 20.023438 2.539062 20.078125 2.8125 C 20.140625 3.09375 20.238281 3.363281 20.375 3.625 C 19.375 3.695312 18.488281 3.628906 17.71875 3.421875 C 16.957031 3.222656 16.421875 2.898438 16.109375 2.453125 C 15.890625 2.140625 15.398438 1.722656 14.640625 1.203125 C 13.890625 0.679688 13.238281 0.296875 12.6875 0.046875 C 11.976562 -0.242188 11.226562 -1.222656 10.4375 -2.890625 C 9.644531 -4.566406 9.019531 -6.515625 8.5625 -8.734375 Z M 8.5625 -8.734375 "/></g></g></g><g fill="#ffffff" fill-opacity="1"><g transform="translate(186.803554, 273.224245)"><g><path d="M 37.0625 -51.53125 C 37.75 -51.675781 38.585938 -51.726562 39.578125 -51.6875 C 40.566406 -51.644531 41.476562 -51.507812 42.3125 -51.28125 C 43.144531 -51.0625 43.863281 -50.796875 44.46875 -50.484375 C 45.082031 -50.179688 45.425781 -49.859375 45.5 -49.515625 C 44.71875 -46.316406 44.046875 -43.125 43.484375 -39.9375 C 42.929688 -36.757812 42.519531 -33.734375 42.25 -30.859375 C 41.988281 -27.984375 41.878906 -25.320312 41.921875 -22.875 C 41.960938 -20.425781 42.164062 -18.34375 42.53125 -16.625 C 42.9375 -14.6875 43.484375 -13.117188 44.171875 -11.921875 C 44.867188 -10.734375 45.757812 -9.960938 46.84375 -9.609375 C 46.113281 -8.878906 45.128906 -8.203125 43.890625 -7.578125 C 42.648438 -6.960938 41.515625 -6.546875 40.484375 -6.328125 C 36.742188 -5.546875 34.335938 -7.710938 33.265625 -12.828125 C 32.429688 -16.773438 32.609375 -22.453125 33.796875 -29.859375 C 33.078125 -26.378906 32.113281 -23.046875 30.90625 -19.859375 C 29.707031 -16.679688 28.398438 -13.820312 26.984375 -11.28125 C 25.566406 -8.75 24.046875 -6.609375 22.421875 -4.859375 C 20.804688 -3.117188 19.234375 -1.941406 17.703125 -1.328125 C 15.109375 -0.929688 12.769531 -1.722656 10.6875 -3.703125 C 8.613281 -5.691406 7.203125 -8.488281 6.453125 -12.09375 C 5.640625 -15.96875 5.613281 -20.222656 6.375 -24.859375 C 7.132812 -29.492188 8.425781 -33.910156 10.25 -38.109375 C 12.070312 -42.316406 14.242188 -45.96875 16.765625 -49.0625 C 19.285156 -52.164062 21.957031 -54.082031 24.78125 -54.8125 C 25.507812 -54.75 26.367188 -54.5 27.359375 -54.0625 C 28.359375 -53.625 29.34375 -53.070312 30.3125 -52.40625 C 31.28125 -51.738281 32.132812 -51.03125 32.875 -50.28125 C 33.613281 -49.53125 34.082031 -48.847656 34.28125 -48.234375 C 31.59375 -47.242188 29.019531 -45.300781 26.5625 -42.40625 C 24.101562 -39.507812 22.019531 -36.203125 20.3125 -32.484375 C 18.601562 -28.765625 17.367188 -24.910156 16.609375 -20.921875 C 15.859375 -16.941406 15.820312 -13.363281 16.5 -10.1875 C 16.769531 -8.875 17.425781 -8.140625 18.46875 -7.984375 C 20.394531 -8.828125 22.351562 -11.03125 24.34375 -14.59375 C 26.332031 -18.15625 28.535156 -23.472656 30.953125 -30.546875 C 31.390625 -31.929688 31.878906 -33.476562 32.421875 -35.1875 C 32.960938 -36.894531 33.503906 -38.671875 34.046875 -40.515625 C 34.597656 -42.359375 35.128906 -44.21875 35.640625 -46.09375 C 36.160156 -47.976562 36.632812 -49.789062 37.0625 -51.53125 Z M 37.0625 -51.53125 "/></g></g></g><g fill="#ffffff" fill-opacity="1"><g transform="translate(229.749489, 264.207668)"><g><path d="M 16.296875 -55.953125 C 18.210938 -55.773438 20.164062 -54.898438 22.15625 -53.328125 C 24.15625 -51.765625 25.769531 -49.925781 27 -47.8125 C 26.632812 -45.78125 25.929688 -43.28125 24.890625 -40.3125 C 23.847656 -37.351562 22.816406 -34.335938 21.796875 -31.265625 C 20.785156 -28.203125 19.894531 -25.304688 19.125 -22.578125 C 18.363281 -19.859375 18.046875 -17.6875 18.171875 -16.0625 C 19.046875 -17.46875 19.988281 -19.085938 21 -20.921875 C 22.019531 -22.765625 23.003906 -24.597656 23.953125 -26.421875 C 24.910156 -28.242188 25.804688 -29.910156 26.640625 -31.421875 C 27.484375 -32.929688 28.148438 -34.066406 28.640625 -34.828125 C 29.660156 -36.484375 30.878906 -38.414062 32.296875 -40.625 C 33.710938 -42.84375 35.234375 -44.96875 36.859375 -47 C 38.492188 -49.039062 40.191406 -50.835938 41.953125 -52.390625 C 43.722656 -53.953125 45.441406 -54.90625 47.109375 -55.25 C 48.898438 -55.632812 50.53125 -55.347656 52 -54.390625 C 53.46875 -53.441406 54.679688 -52.382812 55.640625 -51.21875 C 55.671875 -51.082031 55.453125 -50.835938 54.984375 -50.484375 C 54.515625 -50.128906 53.910156 -49.300781 53.171875 -48 C 52.460938 -46.539062 51.734375 -44.59375 50.984375 -42.15625 C 50.234375 -39.726562 49.550781 -37.132812 48.9375 -34.375 C 48.332031 -31.613281 47.921875 -28.835938 47.703125 -26.046875 C 47.492188 -23.253906 47.613281 -20.789062 48.0625 -18.65625 C 48.425781 -16.914062 48.882812 -15.847656 49.4375 -15.453125 C 50 -15.066406 50.691406 -14.960938 51.515625 -15.140625 C 52.273438 -15.296875 53.03125 -15.632812 53.78125 -16.15625 C 54.539062 -16.6875 55.164062 -17 55.65625 -17.09375 C 55.957031 -17.019531 56.238281 -16.773438 56.5 -16.359375 C 56.769531 -15.941406 56.941406 -15.566406 57.015625 -15.234375 C 56.578125 -14.628906 56.023438 -14.003906 55.359375 -13.359375 C 54.691406 -12.710938 53.988281 -12.09375 53.25 -11.5 C 52.507812 -10.914062 51.769531 -10.398438 51.03125 -9.953125 C 50.300781 -9.515625 49.617188 -9.226562 48.984375 -9.09375 C 46.984375 -8.675781 45.28125 -8.625 43.875 -8.9375 C 42.476562 -9.257812 41.316406 -9.828125 40.390625 -10.640625 C 39.460938 -11.460938 38.71875 -12.515625 38.15625 -13.796875 C 37.59375 -15.085938 37.15625 -16.492188 36.84375 -18.015625 C 36.664062 -18.859375 36.535156 -19.804688 36.453125 -20.859375 C 36.367188 -21.921875 36.382812 -23.207031 36.5 -24.71875 C 36.625 -26.226562 36.859375 -28.046875 37.203125 -30.171875 C 37.546875 -32.304688 38.019531 -34.878906 38.625 -37.890625 C 38.488281 -37.867188 37.65625 -37.191406 36.125 -35.859375 C 34.59375 -34.523438 33.035156 -32.644531 31.453125 -30.21875 C 28.859375 -26.425781 26.582031 -22.734375 24.625 -19.140625 C 22.664062 -15.554688 20.734375 -11.613281 18.828125 -7.3125 C 17.753906 -4.84375 16.800781 -2.742188 15.96875 -1.015625 C 15.144531 0.710938 14.367188 1.898438 13.640625 2.546875 C 12.015625 2.023438 10.695312 1.09375 9.6875 -0.25 C 8.6875 -1.59375 7.847656 -3.023438 7.171875 -4.546875 C 6.890625 -5.859375 6.726562 -7.554688 6.6875 -9.640625 C 6.65625 -11.722656 6.707031 -14.0625 6.84375 -16.65625 C 6.988281 -19.25 7.257812 -21.992188 7.65625 -24.890625 C 8.0625 -27.785156 8.570312 -30.710938 9.1875 -33.671875 C 10.53125 -40.304688 11.929688 -45.578125 13.390625 -49.484375 C 14.847656 -53.398438 15.816406 -55.554688 16.296875 -55.953125 Z M 16.296875 -55.953125 "/></g></g></g><g fill="#ffffff" fill-opacity="1"><g transform="translate(86.063441, 83.9957)"><g><path d="M 5.203125 -4.203125 C 4.390625 -3.484375 3.472656 -3.035156 2.453125 -2.859375 C 1.441406 -2.679688 0.441406 -2.753906 -0.546875 -3.078125 C -1.546875 -3.410156 -2.414062 -3.992188 -3.15625 -4.828125 L -9.4375 -11.9375 C -10.144531 -12.738281 -10.601562 -13.648438 -10.8125 -14.671875 C -11.019531 -15.703125 -10.96875 -16.710938 -10.65625 -17.703125 C -10.351562 -18.691406 -9.800781 -19.539062 -9 -20.25 C -8.1875 -20.976562 -7.269531 -21.4375 -6.25 -21.625 C -5.238281 -21.8125 -4.238281 -21.738281 -3.25 -21.40625 C -2.269531 -21.082031 -1.410156 -20.503906 -0.671875 -19.671875 L 0.234375 -18.640625 C 0.296875 -18.578125 0.285156 -18.515625 0.203125 -18.453125 L -2.296875 -16.234375 C -2.359375 -16.179688 -2.421875 -16.1875 -2.484375 -16.25 L -3.21875 -17.09375 C -3.726562 -17.664062 -4.304688 -17.992188 -4.953125 -18.078125 C -5.609375 -18.171875 -6.171875 -18.007812 -6.640625 -17.59375 C -7.078125 -17.207031 -7.304688 -16.6875 -7.328125 -16.03125 C -7.347656 -15.375 -7.148438 -14.804688 -6.734375 -14.328125 L -0.453125 -7.21875 C -0.015625 -6.726562 0.519531 -6.453125 1.15625 -6.390625 C 1.800781 -6.335938 2.351562 -6.507812 2.8125 -6.90625 C 3.28125 -7.320312 3.519531 -7.84375 3.53125 -8.46875 C 3.550781 -9.101562 3.335938 -9.671875 2.890625 -10.171875 L 1.921875 -11.28125 L 0.359375 -9.890625 C 0.285156 -9.828125 0.210938 -9.832031 0.140625 -9.90625 L -2.078125 -12.421875 C -2.140625 -12.492188 -2.132812 -12.5625 -2.0625 -12.625 L 2.125 -16.328125 C 2.1875 -16.378906 2.25 -16.367188 2.3125 -16.296875 L 5.609375 -12.5625 C 6.347656 -11.726562 6.816406 -10.796875 7.015625 -9.765625 C 7.210938 -8.742188 7.160156 -7.742188 6.859375 -6.765625 C 6.566406 -5.785156 6.015625 -4.929688 5.203125 -4.203125 Z M 5.203125 -4.203125 "/></g></g></g><g fill="#ffffff" fill-opacity="1"><g transform="translate(96.895166, 74.471326)"><g><path d="M 5.625 -3.6875 C 4.757812 -3.0625 3.804688 -2.710938 2.765625 -2.640625 C 1.722656 -2.566406 0.722656 -2.738281 -0.234375 -3.15625 C -1.203125 -3.582031 -2.003906 -4.238281 -2.640625 -5.125 L -8.15625 -12.828125 C -8.800781 -13.722656 -9.171875 -14.6875 -9.265625 -15.71875 C -9.359375 -16.757812 -9.195312 -17.757812 -8.78125 -18.71875 C -8.363281 -19.675781 -7.726562 -20.460938 -6.875 -21.078125 C -5.988281 -21.710938 -5.035156 -22.066406 -4.015625 -22.140625 C -2.992188 -22.210938 -2.007812 -22.039062 -1.0625 -21.625 C -0.113281 -21.207031 0.679688 -20.550781 1.328125 -19.65625 L 6.890625 -11.96875 C 7.523438 -11.082031 7.894531 -10.117188 8 -9.078125 C 8.101562 -8.035156 7.953125 -7.035156 7.546875 -6.078125 C 7.148438 -5.117188 6.507812 -4.320312 5.625 -3.6875 Z M 3.515625 -6.609375 C 4.003906 -6.960938 4.285156 -7.46875 4.359375 -8.125 C 4.441406 -8.78125 4.304688 -9.359375 3.953125 -9.859375 L -1.609375 -17.546875 C -1.992188 -18.078125 -2.484375 -18.40625 -3.078125 -18.53125 C -3.679688 -18.664062 -4.25 -18.546875 -4.78125 -18.171875 C -5.28125 -17.816406 -5.578125 -17.328125 -5.671875 -16.703125 C -5.765625 -16.078125 -5.613281 -15.488281 -5.21875 -14.9375 L 0.3125 -7.234375 C 0.695312 -6.703125 1.203125 -6.375 1.828125 -6.25 C 2.453125 -6.132812 3.015625 -6.253906 3.515625 -6.609375 Z M 3.515625 -6.609375 "/></g></g></g><g fill="#ffffff" fill-opacity="1"><g transform="translate(108.86618, 65.98137)"><g><path d="M 1.140625 -0.65625 C 1.078125 -0.625 1.019531 -0.65625 0.96875 -0.75 L -9.34375 -18.46875 C -9.394531 -18.539062 -9.375 -18.601562 -9.28125 -18.65625 L -6.421875 -20.328125 C -6.328125 -20.378906 -6.253906 -20.367188 -6.203125 -20.296875 L 2.3125 -5.59375 L 7.640625 -8.6875 C 7.722656 -8.738281 7.785156 -8.722656 7.828125 -8.640625 L 9.53125 -5.734375 C 9.582031 -5.640625 9.566406 -5.566406 9.484375 -5.515625 Z M 1.140625 -0.65625 "/></g></g></g><g fill="#ffffff" fill-opacity="1"><g transform="translate(120.044727, 59.509632)"><g><path d="M 1.21875 -0.5625 C 1.132812 -0.519531 1.070312 -0.546875 1.03125 -0.640625 L -7.578125 -19.296875 C -7.609375 -19.359375 -7.585938 -19.40625 -7.515625 -19.4375 L 1.15625 -23.46875 C 1.25 -23.507812 1.3125 -23.5 1.34375 -23.4375 L 2.765625 -20.375 C 2.804688 -20.300781 2.789062 -20.25 2.71875 -20.21875 L -2.84375 -17.640625 L -0.890625 -13.421875 L 4.671875 -16 C 4.742188 -16.03125 4.800781 -16.003906 4.84375 -15.921875 L 6.296875 -12.875 C 6.328125 -12.800781 6.296875 -12.742188 6.203125 -12.703125 L 0.640625 -10.125 L 4.328125 -2.1875 C 4.367188 -2.09375 4.34375 -2.019531 4.25 -1.96875 Z M 1.21875 -0.5625 "/></g></g></g><g fill="#ffffff" fill-opacity="1"><g transform="translate(132.678101, 53.843907)"><g/></g></g><g fill="#ffffff" fill-opacity="1"><g transform="translate(137.915364, 51.696423)"><g><path d="M 1.28125 -0.390625 C 1.195312 -0.359375 1.140625 -0.394531 1.109375 -0.5 L -4.796875 -20.15625 C -4.816406 -20.226562 -4.789062 -20.28125 -4.71875 -20.3125 L 0.765625 -21.96875 C 2.523438 -22.5 4.078125 -22.382812 5.421875 -21.625 C 6.765625 -20.863281 7.710938 -19.570312 8.265625 -17.75 C 8.679688 -16.394531 8.769531 -15.140625 8.53125 -13.984375 C 8.300781 -12.828125 7.835938 -11.851562 7.140625 -11.0625 C 6.441406 -10.28125 5.582031 -9.734375 4.5625 -9.421875 L 2.40625 -8.765625 L 4.59375 -1.5625 C 4.625 -1.457031 4.585938 -1.390625 4.484375 -1.359375 Z M 1.359375 -12.21875 L 3.515625 -12.875 C 4.140625 -13.0625 4.582031 -13.515625 4.84375 -14.234375 C 5.113281 -14.953125 5.109375 -15.78125 4.828125 -16.71875 C 4.609375 -17.457031 4.222656 -18.003906 3.671875 -18.359375 C 3.128906 -18.722656 2.503906 -18.796875 1.796875 -18.578125 L -0.359375 -17.890625 Z M 1.359375 -12.21875 "/></g></g></g><g fill="#ffffff" fill-opacity="1"><g transform="translate(152.1881, 47.456957)"><g><path d="M 1.28125 -0.25 C 1.21875 -0.238281 1.175781 -0.285156 1.15625 -0.390625 L -2.8125 -20.53125 C -2.820312 -20.601562 -2.789062 -20.648438 -2.71875 -20.671875 L 6.703125 -22.53125 C 6.785156 -22.539062 6.832031 -22.5 6.84375 -22.40625 L 7.5 -19.125 C 7.519531 -19.039062 7.488281 -18.992188 7.40625 -18.984375 L 1.390625 -17.796875 L 2.28125 -13.234375 L 8.296875 -14.421875 C 8.378906 -14.429688 8.429688 -14.394531 8.453125 -14.3125 L 9.140625 -11.015625 C 9.148438 -10.929688 9.113281 -10.878906 9.03125 -10.859375 L 2.984375 -9.671875 L 4 -4.546875 L 10.046875 -5.734375 C 10.128906 -5.753906 10.179688 -5.71875 10.203125 -5.625 L 10.859375 -2.28125 C 10.878906 -2.195312 10.847656 -2.144531 10.765625 -2.125 Z M 1.28125 -0.25 "/></g></g></g><g fill="#ffffff" fill-opacity="1"><g transform="translate(165.463938, 44.833618)"><g><path d="M 1.3125 -0.125 C 1.238281 -0.113281 1.195312 -0.160156 1.1875 -0.265625 L -0.703125 -20.71875 C -0.710938 -20.789062 -0.675781 -20.828125 -0.59375 -20.828125 L 5.40625 -21.40625 C 6.476562 -21.507812 7.492188 -21.335938 8.453125 -20.890625 C 9.410156 -20.453125 10.195312 -19.816406 10.8125 -18.984375 C 11.425781 -18.160156 11.785156 -17.195312 11.890625 -16.09375 C 11.960938 -15.351562 11.914062 -14.679688 11.75 -14.078125 C 11.582031 -13.472656 11.375 -12.953125 11.125 -12.515625 C 10.875 -12.078125 10.640625 -11.742188 10.421875 -11.515625 C 11.585938 -10.441406 12.25 -9.097656 12.40625 -7.484375 L 13.015625 -1.390625 C 13.023438 -1.285156 12.976562 -1.226562 12.875 -1.21875 L 9.515625 -0.90625 C 9.441406 -0.894531 9.398438 -0.921875 9.390625 -0.984375 L 8.8125 -7.140625 C 8.75 -7.859375 8.4375 -8.453125 7.875 -8.921875 C 7.320312 -9.398438 6.675781 -9.601562 5.9375 -9.53125 L 3.984375 -9.34375 L 4.78125 -0.609375 C 4.789062 -0.503906 4.753906 -0.445312 4.671875 -0.4375 Z M 3.640625 -12.921875 L 6.1875 -13.171875 C 6.8125 -13.222656 7.335938 -13.5 7.765625 -14 C 8.203125 -14.507812 8.390625 -15.09375 8.328125 -15.75 C 8.265625 -16.375 7.976562 -16.894531 7.46875 -17.3125 C 6.96875 -17.726562 6.394531 -17.90625 5.75 -17.84375 L 3.203125 -17.59375 Z M 3.640625 -12.921875 "/></g></g></g><g fill="#ffffff" fill-opacity="1"><g transform="translate(180.7849, 43.474845)"><g><path d="M 1.34375 0.015625 C 1.25 0.00390625 1.203125 -0.0507812 1.203125 -0.15625 L 1.375 -20.6875 C 1.375 -20.757812 1.414062 -20.789062 1.5 -20.78125 L 11.0625 -20.734375 C 11.164062 -20.734375 11.21875 -20.695312 11.21875 -20.625 L 11.203125 -17.25 C 11.203125 -17.164062 11.160156 -17.125 11.078125 -17.125 L 4.953125 -17.15625 L 4.921875 -12.515625 L 11.046875 -12.484375 C 11.128906 -12.484375 11.171875 -12.4375 11.171875 -12.34375 L 11.1875 -8.96875 C 11.1875 -8.882812 11.132812 -8.84375 11.03125 -8.84375 L 4.90625 -8.875 L 4.84375 -0.125 C 4.84375 -0.0195312 4.789062 0.03125 4.6875 0.03125 Z M 1.34375 0.015625 "/></g></g></g><g fill="#ffffff" fill-opacity="1"><g transform="translate(194.367854, 43.581357)"><g><path d="M 6.65625 1 C 5.582031 0.882812 4.632812 0.507812 3.8125 -0.125 C 2.988281 -0.769531 2.359375 -1.566406 1.921875 -2.515625 C 1.484375 -3.472656 1.320312 -4.492188 1.4375 -5.578125 L 2.4375 -15.015625 C 2.550781 -16.097656 2.914062 -17.054688 3.53125 -17.890625 C 4.15625 -18.734375 4.941406 -19.375 5.890625 -19.8125 C 6.835938 -20.257812 7.835938 -20.425781 8.890625 -20.3125 C 9.960938 -20.195312 10.90625 -19.828125 11.71875 -19.203125 C 12.53125 -18.578125 13.148438 -17.789062 13.578125 -16.84375 C 14.015625 -15.894531 14.175781 -14.878906 14.0625 -13.796875 L 13.109375 -4.359375 C 12.992188 -3.273438 12.625 -2.3125 12 -1.46875 C 11.382812 -0.625 10.609375 0.0234375 9.671875 0.484375 C 8.734375 0.941406 7.726562 1.113281 6.65625 1 Z M 7.03125 -2.59375 C 7.625 -2.53125 8.171875 -2.71875 8.671875 -3.15625 C 9.171875 -3.59375 9.453125 -4.117188 9.515625 -4.734375 L 10.46875 -14.171875 C 10.539062 -14.816406 10.390625 -15.390625 10.015625 -15.890625 C 9.648438 -16.398438 9.148438 -16.6875 8.515625 -16.75 C 7.898438 -16.8125 7.347656 -16.640625 6.859375 -16.234375 C 6.378906 -15.835938 6.101562 -15.304688 6.03125 -14.640625 L 5.046875 -5.203125 C 4.972656 -4.546875 5.128906 -3.960938 5.515625 -3.453125 C 5.910156 -2.941406 6.414062 -2.65625 7.03125 -2.59375 Z M 7.03125 -2.59375 "/></g></g></g><g fill="#ffffff" fill-opacity="1"><g transform="translate(208.891184, 45.133661)"><g><path d="M 1.28125 0.265625 C 1.207031 0.253906 1.179688 0.195312 1.203125 0.09375 L 5.5 -19.96875 C 5.519531 -20.039062 5.570312 -20.070312 5.65625 -20.0625 L 11.5625 -18.8125 C 12.613281 -18.582031 13.53125 -18.113281 14.3125 -17.40625 C 15.09375 -16.707031 15.648438 -15.867188 15.984375 -14.890625 C 16.328125 -13.921875 16.382812 -12.890625 16.15625 -11.796875 C 16 -11.078125 15.75 -10.445312 15.40625 -9.90625 C 15.070312 -9.375 14.71875 -8.941406 14.34375 -8.609375 C 13.976562 -8.273438 13.65625 -8.03125 13.375 -7.875 C 14.175781 -6.5 14.410156 -5.019531 14.078125 -3.4375 L 12.84375 2.5625 C 12.820312 2.664062 12.757812 2.707031 12.65625 2.6875 L 9.359375 1.984375 C 9.285156 1.960938 9.253906 1.921875 9.265625 1.859375 L 10.546875 -4.1875 C 10.703125 -4.894531 10.582031 -5.554688 10.1875 -6.171875 C 9.800781 -6.796875 9.25 -7.1875 8.53125 -7.34375 L 6.59375 -7.75 L 4.734375 0.84375 C 4.710938 0.945312 4.660156 0.988281 4.578125 0.96875 Z M 7.328125 -11.265625 L 9.84375 -10.734375 C 10.445312 -10.597656 11.03125 -10.703125 11.59375 -11.046875 C 12.15625 -11.398438 12.507812 -11.894531 12.65625 -12.53125 C 12.78125 -13.15625 12.660156 -13.738281 12.296875 -14.28125 C 11.929688 -14.832031 11.4375 -15.175781 10.8125 -15.3125 L 8.296875 -15.84375 Z M 7.328125 -11.265625 "/></g></g></g><g fill="#ffffff" fill-opacity="1"><g transform="translate(223.845004, 48.306107)"><g><path d="M 1.25 0.40625 C 1.175781 0.382812 1.15625 0.328125 1.1875 0.234375 L 7.71875 -19.234375 C 7.738281 -19.304688 7.789062 -19.328125 7.875 -19.296875 L 11.328125 -18.15625 C 11.398438 -18.125 11.457031 -18.0625 11.5 -17.96875 L 12.828125 -13.359375 L 16.65625 -16.265625 C 16.738281 -16.316406 16.8125 -16.328125 16.875 -16.296875 L 20.375 -15.140625 C 20.445312 -15.117188 20.472656 -15.070312 20.453125 -15 L 14.03125 4.5 C 14 4.59375 13.941406 4.628906 13.859375 4.609375 L 10.65625 3.546875 C 10.59375 3.523438 10.578125 3.46875 10.609375 3.375 L 15.390625 -11.109375 L 10.96875 -7.78125 L 9.453125 -13.078125 L 4.609375 1.375 C 4.578125 1.46875 4.523438 1.503906 4.453125 1.484375 Z M 1.25 0.40625 "/></g></g></g><g fill="#ffffff" fill-opacity="1"><g transform="translate(239.905189, 53.790229)"><g><path d="M 0.21875 -0.0625 L 12.125 -17.21875 C 12.164062 -17.269531 12.222656 -17.28125 12.296875 -17.25 L 16.25 -15.453125 C 16.3125 -15.421875 16.335938 -15.367188 16.328125 -15.296875 L 11.046875 4.875 C 11.023438 4.96875 10.96875 4.992188 10.875 4.953125 L 7.859375 3.578125 C 7.785156 3.546875 7.757812 3.476562 7.78125 3.375 L 8.390625 1.25 L 4.6875 -0.421875 L 3.484375 1.421875 C 3.421875 1.503906 3.351562 1.53125 3.28125 1.5 L 0.265625 0.125 C 0.191406 0.09375 0.175781 0.03125 0.21875 -0.0625 Z M 6.5625 -3.09375 L 9.171875 -1.890625 L 11.546875 -10.046875 L 11.84375 -11.125 L 11.265625 -10.171875 Z M 6.5625 -3.09375 "/></g></g></g><g fill="#ffffff" fill-opacity="1"><g transform="translate(252.409437, 59.511395)"><g><path d="M 1.265625 0.734375 C 1.117188 0.648438 1.082031 0.550781 1.15625 0.4375 L 11.390625 -17.15625 C 11.472656 -17.289062 11.582031 -17.320312 11.71875 -17.25 L 14.03125 -15.890625 L 12.46875 -3.1875 L 18.140625 -13.21875 C 18.222656 -13.351562 18.34375 -13.378906 18.5 -13.296875 L 21.0625 -11.8125 C 21.164062 -11.738281 21.175781 -11.632812 21.09375 -11.5 L 10.875 6.125 C 10.8125 6.226562 10.734375 6.253906 10.640625 6.203125 L 8.375 4.875 L 9.4375 -7.234375 L 4.203125 2.171875 C 4.117188 2.304688 4 2.328125 3.84375 2.234375 Z M 1.265625 0.734375 "/></g></g></g><g fill="#ffffff" fill-opacity="1"><g transform="translate(265.198512, 67.023778)"><g><path d="M 5.25 4.1875 C 4.351562 3.53125 3.707031 2.71875 3.3125 1.75 C 2.925781 0.789062 2.789062 -0.207031 2.90625 -1.25 C 3.03125 -2.289062 3.425781 -3.269531 4.09375 -4.1875 L 9.59375 -11.71875 C 10.238281 -12.601562 11.035156 -13.257812 11.984375 -13.6875 C 12.929688 -14.125 13.921875 -14.300781 14.953125 -14.21875 C 15.992188 -14.144531 16.960938 -13.78125 17.859375 -13.125 C 18.742188 -12.488281 19.378906 -11.695312 19.765625 -10.75 C 20.148438 -9.800781 20.285156 -8.804688 20.171875 -7.765625 C 20.066406 -6.722656 19.6875 -5.75 19.03125 -4.84375 L 18.21875 -3.734375 C 18.164062 -3.671875 18.109375 -3.664062 18.046875 -3.71875 L 15.34375 -5.6875 C 15.269531 -5.726562 15.257812 -5.78125 15.3125 -5.84375 L 16.125 -6.953125 C 16.507812 -7.484375 16.671875 -8.070312 16.609375 -8.71875 C 16.546875 -9.363281 16.257812 -9.867188 15.75 -10.234375 C 15.164062 -10.660156 14.578125 -10.785156 13.984375 -10.609375 C 13.390625 -10.441406 12.90625 -10.097656 12.53125 -9.578125 L 7.03125 -2.046875 C 6.601562 -1.453125 6.425781 -0.84375 6.5 -0.21875 C 6.570312 0.40625 6.863281 0.90625 7.375 1.28125 C 7.882812 1.644531 8.457031 1.742188 9.09375 1.578125 C 9.738281 1.421875 10.25 1.085938 10.625 0.578125 L 11.4375 -0.53125 C 11.488281 -0.601562 11.550781 -0.617188 11.625 -0.578125 L 14.34375 1.421875 C 14.40625 1.460938 14.410156 1.519531 14.359375 1.59375 L 13.546875 2.703125 C 12.878906 3.617188 12.0625 4.289062 11.09375 4.71875 C 10.132812 5.144531 9.140625 5.320312 8.109375 5.25 C 7.085938 5.175781 6.132812 4.820312 5.25 4.1875 Z M 5.25 4.1875 "/></g></g></g><g fill="#ffffff" fill-opacity="1"><g transform="translate(276.91042, 75.641881)"><g><path d="M 0.984375 0.875 C 0.929688 0.820312 0.941406 0.757812 1.015625 0.6875 L 14.65625 -14.640625 C 14.707031 -14.691406 14.765625 -14.691406 14.828125 -14.640625 L 22 -8.265625 C 22.0625 -8.203125 22.0625 -8.140625 22 -8.078125 L 19.78125 -5.578125 C 19.71875 -5.515625 19.65625 -5.515625 19.59375 -5.578125 L 15.015625 -9.640625 L 11.921875 -6.15625 L 16.5 -2.09375 C 16.5625 -2.03125 16.566406 -1.96875 16.515625 -1.90625 L 14.28125 0.625 C 14.226562 0.6875 14.171875 0.691406 14.109375 0.640625 L 9.515625 -3.453125 L 6.03125 0.453125 L 10.625 4.546875 C 10.6875 4.597656 10.6875 4.660156 10.625 4.734375 L 8.359375 7.28125 C 8.304688 7.34375 8.25 7.347656 8.1875 7.296875 Z M 0.984375 0.875 "/></g></g></g><path stroke-linecap="butt" transform="matrix(0.131575, -0.738368, 0.738368, 0.131575, 18.554005, 241.585383)" fill="none" stroke-linejoin="miter" d="M 1.001868 33.622634 C 73.928182 -8.543762 146.856582 -8.540909 219.780115 33.621853 " stroke="#ffffff" stroke-width="4" stroke-opacity="1" stroke-miterlimit="4"/><path stroke-linecap="butt" transform="matrix(-0.133671, -0.737992, 0.737992, -0.133671, 328.296691, 246.232395)" fill="none" stroke-linejoin="miter" d="M 0.995434 1.736716 C 73.958401 43.624948 146.92365 43.624159 219.886055 1.733422 " stroke="#ffffff" stroke-width="4" stroke-opacity="1" stroke-miterlimit="4"/></svg>